MFEM mesh v1.0

#
# MFEM Geometry Types (see fem/geom.hpp):
#
# POINT       = 0
# SEGMENT     = 1
# TRIANGLE    = 2
# SQUARE      = 3
# TETRAHEDRON = 4
# CUBE        = 5
# PRISM       = 6
# PYRAMID     = 7
#

dimension
3

elements
64
1 5 0 1 6 5 25 26 31 30
1 5 25 26 31 30 50 51 56 55
1 5 26 27 32 31 51 52 57 56
1 5 1 2 7 6 26 27 32 31
1 5 6 7 12 11 31 32 37 36
1 5 31 32 37 36 56 57 62 61
1 5 30 31 36 35 55 56 61 60
1 5 5 6 11 10 30 31 36 35
1 5 10 11 16 15 35 36 41 40
1 5 11 12 17 16 36 37 42 41
1 5 16 17 22 21 41 42 47 46
1 5 15 16 21 20 40 41 46 45
1 5 40 41 46 45 65 66 71 70
1 5 41 42 47 46 66 67 72 71
1 5 36 37 42 41 61 62 67 66
1 5 35 36 41 40 60 61 66 65
1 5 60 61 66 65 85 86 91 90
1 5 61 62 67 66 86 87 92 91
1 5 66 67 72 71 91 92 97 96
1 5 65 66 71 70 90 91 96 95
1 5 90 91 96 95 115 116 121 120
1 5 91 92 97 96 116 117 122 121
1 5 86 87 92 91 111 112 117 116
1 5 85 86 91 90 110 111 116 115
1 5 80 81 86 85 105 106 111 110
1 5 75 76 81 80 100 101 106 105
1 5 50 51 56 55 75 76 81 80
1 5 55 56 61 60 80 81 86 85
1 5 56 57 62 61 81 82 87 86
1 5 51 52 57 56 76 77 82 81
1 5 76 77 82 81 101 102 107 106
1 5 81 82 87 86 106 107 112 111
1 5 82 83 88 87 107 108 113 112
1 5 77 78 83 82 102 103 108 107
1 5 52 53 58 57 77 78 83 82
1 5 57 58 63 62 82 83 88 87
1 5 58 59 64 63 83 84 89 88
1 5 53 54 59 58 78 79 84 83
1 5 78 79 84 83 103 104 109 108
1 5 83 84 89 88 108 109 114 113
1 5 88 89 94 93 113 114 119 118
1 5 87 88 93 92 112 113 118 117
1 5 92 93 98 97 117 118 123 122
1 5 93 94 99 98 118 119 124 123
1 5 68 69 74 73 93 94 99 98
1 5 67 68 73 72 92 93 98 97
1 5 62 63 68 67 87 88 93 92
1 5 63 64 69 68 88 89 94 93
1 5 38 39 44 43 63 64 69 68
1 5 37 38 43 42 62 63 68 67
1 5 42 43 48 47 67 68 73 72
1 5 43 44 49 48 68 69 74 73
1 5 18 19 24 23 43 44 49 48
1 5 17 18 23 22 42 43 48 47
1 5 12 13 18 17 37 38 43 42
1 5 13 14 19 18 38 39 44 43
1 5 8 9 14 13 33 34 39 38
1 5 33 34 39 38 58 59 64 63
1 5 32 33 38 37 57 58 63 62
1 5 7 8 13 12 32 33 38 37
1 5 2 3 8 7 27 28 33 32
1 5 27 28 33 32 52 53 58 57
1 5 28 29 34 33 53 54 59 58
1 5 3 4 9 8 28 29 34 33

boundary
96
1 3 0 5 6 1
1 3 1 6 7 2
1 3 2 7 8 3
1 3 3 8 9 4
1 3 5 10 11 6
1 3 6 11 12 7
1 3 7 12 13 8
1 3 8 13 14 9
1 3 10 15 16 11
1 3 11 16 17 12
1 3 12 17 18 13
1 3 13 18 19 14
1 3 15 20 21 16
1 3 16 21 22 17
1 3 17 22 23 18
1 3 18 23 24 19
6 3 100 101 106 105
6 3 101 102 107 106
6 3 102 103 108 107
6 3 103 104 109 108
6 3 105 106 111 110
6 3 106 107 112 111
6 3 107 108 113 112
6 3 108 109 114 113
6 3 110 111 116 115
6 3 111 112 117 116
6 3 112 113 118 117
6 3 113 114 119 118
6 3 115 116 121 120
6 3 116 117 122 121
6 3 117 118 123 122
6 3 118 119 124 123
5 3 0 25 30 5
5 3 5 30 35 10
5 3 10 35 40 15
5 3 15 40 45 20
5 3 25 50 55 30
5 3 30 55 60 35
5 3 35 60 65 40
5 3 40 65 70 45
5 3 50 75 80 55
5 3 55 80 85 60
5 3 60 85 90 65
5 3 65 90 95 70
5 3 75 100 105 80
5 3 80 105 110 85
5 3 85 110 115 90
5 3 90 115 120 95
3 3 4 9 34 29
3 3 9 14 39 34
3 3 14 19 44 39
3 3 19 24 49 44
3 3 29 34 59 54
3 3 34 39 64 59
3 3 39 44 69 64
3 3 44 49 74 69
3 3 54 59 84 79
3 3 59 64 89 84
3 3 64 69 94 89
3 3 69 74 99 94
3 3 79 84 109 104
3 3 84 89 114 109
3 3 89 94 119 114
3 3 94 99 124 119
2 3 0 1 26 25
2 3 25 26 51 50
2 3 50 51 76 75
2 3 75 76 101 100
2 3 1 2 27 26
2 3 26 27 52 51
2 3 51 52 77 76
2 3 76 77 102 101
2 3 2 3 28 27
2 3 27 28 53 52
2 3 52 53 78 77
2 3 77 78 103 102
2 3 3 4 29 28
2 3 28 29 54 53
2 3 53 54 79 78
2 3 78 79 104 103
4 3 20 45 46 21
4 3 45 70 71 46
4 3 70 95 96 71
4 3 95 120 121 96
4 3 21 46 47 22
4 3 46 71 72 47
4 3 71 96 97 72
4 3 96 121 122 97
4 3 22 47 48 23
4 3 47 72 73 48
4 3 72 97 98 73
4 3 97 122 123 98
4 3 23 48 49 24
4 3 48 73 74 49
4 3 73 98 99 74
4 3 98 123 124 99

vertices
125

nodes
FiniteElementSpace
FiniteElementCollection: H1_3D_P2
VDim: 3
Ordering: 0

0
0.25
0.5
0.75
1
0
0.25
0.5
0.75
1
0
0.25
0.5
0.75
1
0
0.25
0.5
0.75
1
0
0.25
0.5
0.75
1
0
0.25
0.5
0.75
1
0
0.2958173310386882
0.5848972652227785
0.8615281132941308
1.121893446504023
0
0.3106074272945162
0.6124636761129433
0.8981498555725463
1.162708821268428
0
0.2850963694007222
0.565563264092272
0.8374760049236557
1.098212205125492
0
0.2382655344739368
0.4792690407946307
0.7253316594149468
0.9780043268010997
0
0.25
0.5
0.75
1
0
0.3106074272945162
0.6124636761129433
0.8981498555725463
1.162708821268428
0
0.3309137004394104
0.6504605293150504
0.9490041182177866
1.220105651629515
0
0.298872961768453
0.591732716907574
0.873481514987493
1.140713148069527
0
0.2391400479276735
0.481836436799866
0.7311040868906039
0.9889575035220223
0
0.25
0.5
0.75
1
0
0.2850963694007222
0.565563264092272
0.8374760049236557
1.098212205125492
0
0.298872961768453
0.591732716907574
0.873481514987493
1.140713148069527
0
0.2849573789663617
0.5667337020226444
0.8426322001847348
1.110850950026045
0
0.2563923149611451
0.5146659754467621
0.7764159091796615
1.042707812793251
0
0.25
0.5
0.75
1
0
0.2382655344739368
0.4792690407946307
0.7253316594149468
0.9780043268010997
0
0.2391400479276735
0.481836436799866
0.7311040868906039
0.9889575035220223
0
0.2563923149611451
0.5146659754467621
0.7764159091796615
1.042707812793251
0
0.2823086032115997
0.5635045378368864
0.8426445289954474
1.119098300562505
0.125
0.25
0.125
0
0.125
0.2751468083801218
0.1483421672175248
0
0
0.25
0.2751468083801218
0
0.125
0.2832108286728905
0.1558667873109206
0
0
0.25
0.3083576370530123
0
0.375
0.5465841813712068
0.44159180652143
0.375
0.5616034861981473
0.4631390498337001
0.5
0.6081876675693539
0.375
0.5
0.375
0.5
0.5465841813712068
0.5
0.375
0.25
0.6081876675693539
0.4631390498337001
0.3083576370530123
0.5616034861981473
0.2832108286728905
0.6438109636595278
0.4927698923392512
0.3274437192519323
0.6438109636595278
0.3274437192519323
0.1558667873109206
0
0.1661882244035687
0
0
0.125
0
0
0.25
0.125
0
0.3022969108718105
0.1428460571860439
0
0.26908608219892
0
0.5
0.375
0.597226782288321
0.4261780858178211
0.5356232960901738
0.5
0.375
0.25
0.5235771946806345
0.3582656028899739
0.262309303468198
0.4879538985904606
0.2432232212692779
0.125
0
0.1189565989822618
0
0
0.1498233862931824
0.2698226681988389
0.1193411997054429
0
0
0.2955201321410885
0.2366118395259484
0
0.446404652723674
0.5382926500836549
0.3598366060076316
0.5851806808787816
0.4766891638855076
0.6317648622499884
0.3206669405212103
0
0.1498233862931824
0.2949694765789607
0.1426833669229677
0
0
0.3206669405212103
0.2949694765789607
0
0.446404652723674
0.5848768314548616
0.4264284125290617
0.6317648622499884
0.5848768314548616
0.5414976269293607
0.3851844220288337
0.2711066068234447
0.4949134455581539
0.2459597984433229
0.1280751067992302
0
0
0.1280751067992302
0.2690951069320443
0.1412258936067
0
0
0.2711066068234447
0.2690951069320443
0
0.3851844220288337
0.5386134273838915
0.4231104472937894
0.5414976269293607
0.5386134273838915
0.3598366060076316
0.4949134455581539
0.2459597984433229
0.2698226681988389
0.5382926500836549
0.1193411997054429
0
0
0.1428460571860439
0.2955201321410885
0
0.1189565989822618
0.2366118395259484
0
0
0.262309303468198
0.125
0.26908608219892
0
0.125
0.2432232212692779
0
0
0.25
0
0.25
0.3022969108718105
0
0.4261780858178211
0.5851806808787816
0.597226782288321
0.375
0.5356232960901738
0.5
0.375
0.4879538985904606
0.3582656028899739
0.5
0.5235771946806345
0.4766891638855076
0.7027891588883983
0.8640141312655955
0.7342560962098951
0.6015495258254132
0.7231698692610694
0.6054950191194763
0.7829208069570619
0.8042631935696031
0.625
0.7974508154603885
0.625
0.7354699914966734
0.75
0.625
0.8310933243085334
0.7577065703844819
0.75
0.8785441397689221
0.9397115512650055
0.8028494205184286
0.9251815427616789
1.033260100886793
1.208871163078001
1.088231751241709
0.9693416111354649
1.128701295930076
1.009042436370671
1.142075890682
1.195496568326077
0.875
1.088951068288468
0.875
1.053124822393532
1
0.875
0.9866254052480758
0.8507823354838779
1
1.039750227641608
0.9780169951221328
0.8588804179753333
1.0669680634106
1.133763335806601
0.9777705580815775
0.8654306050656865
1.011112351898433
0.9089532981155948
0.7493990036950696
1.077907624294434
0.8105664151911531
0.7055552807495065
0.6450250276228029
0.8105664151911531
0.6450250276228029
0.8089137444533945
0.7033796565643438
0.8089137444533945
1.077907624294434
0.9089532981155948
1.080235789342185
0.981231332072422
1.080235789342185
1.009042436370671
1.0669680634106
0.8588804179753333
0.8042631935696031
0.8654306050656865
1.133763335806601
1.011112351898433
0.7493990036950696
0.7342560962098951
0.6054950191194763
0.9251815427616789
1.195496568326077
1.033260100886793
1.142075890682
0.9693416111354649
0.8785441397689221
0.9397115512650055
1.208871163078001
1.128701295930076
0.8640141312655955
0.7577065703844819
0.7027891588883983
0.7829208069570619
0.6015495258254132
0.7231698692610694
1.039750227641608
0.8507823354838779
0.9780169951221328
0.875
1
0.875
0.75
0.7974508154603885
1.053124822393532
0.9866254052480758
0.7354699914966734
0.625
0.625
0.625
0.75
0.8310933243085334
0.875
1
1.088951068288468
0.875
1
0.75
0.9938901401062443
1.155746340684468
0.892260735804617
0.8111674114960834
1.066795272396001
0.892260735804617
1.155746340684468
0.7250602616300302
0.625
0.625
0.75
0.625
0.8111674114960834
0.75
0.75
0.875
1.066795272396001
1
0.875
1
1
0.125
0.125
0.2638056674087286
0.1378120789445904
0
0.1378120789445904
0.125
0.2820116636299596
0.1547275069880653
0
0.141915428043475
0.4115451830714676
0.375
0.5593282490043878
0.4598351848514617
0.423290001779994
0.375
0.375
0.5255690162183906
0.4115451830714676
0.375
0.5593282490043878
0.423290001779994
0.2820116636299596
0.4598351848514617
0.638032692331334
0.4876569088732027
0.3244130947032449
0.4876569088732027
0.1547275069880653
0.164434548926968
0
0.164434548926968
0.125
0.141915428043475
0
0.125
0.2785957636645566
0.1347070419389026
0
0.1516224699823776
0.375
0.5531354271085553
0.402821724021741
0.451111725801735
0.375
0.5124278369837166
0.3653123453643858
0.2565006057361656
0.3931340693861268
0.125
0.1215146169778103
0
0.131221658916713
0.1481370869601879
0.2668612981384934
0.11808294142389
0
0.1349983694673649
0.4414240711661208
0.5324044679031861
0.3560155131192972
0.4043055148992912
0.6248915130966599
0.3171080330306818
0.4779692542375884
0
0.1609491659047783
0.1609491659047783
0.3126786291771816
0.1478104484119553
0
0.1478104484119553
0.4779692542375884
0.6173017331259646
0.4408506979707589
0.4408506979707589
0.5411646858042538
0.369888052369883
0.2711517115576331
0.4064332354413507
0.1227872671842138
0
0.1355993461288042
0.1355993461288042
0.2701979823698738
0.1345203228035739
0
0.1345203228035739
0.4064332354413507
0.5402349916651528
0.4037767207921343
0.4037767207921343
0.4043055148992912
0.5411646858042538
0.2711517115576331
0.369888052369883
0.1349983694673649
0
0.1227872671842138
0.1481370869601879
0.131221658916713
0.2668612981384934
0
0.11808294142389
0.1347070419389026
0.125
0.2565006057361656
0
0.1215146169778103
0.125
0.2785957636645566
0.1516224699823776
0
0.3171080330306817
0
0.451111725801735
0.6248915130966599
0.4414240711661208
0.375
0.5531354271085553
0.402821724021741
0.375
0.5124278369837166
0.3931340693861268
0.3653123453643858
0.5324044679031861
0.3560155131192972
0.7262042587838063
0.6535345835969878
0.7955120540163252
0.671648864182428
0.5989791889956094
0.6672360228638556
0.625
0.7672956103222773
0.6112985607331322
0.6976696751868185
0.625
0.8201803946013784
0.7399056980506741
0.7947987197549743
0.9154454658948237
0.7810972804881064
1.077874288240045
1.012693047274784
1.183487956462534
1.063434366570959
0.9982531256056979
0.9615807404509514
0.875
1.077433069931386
0.9261123068238322
0.875
1.020779135194106
0.9116723851547465
0.8605600783309142
1.055437396732486
0.9360531848325859
0.8494724443816344
1.001234425797847
1.074233254859064
0.9444684921127036
0.809073547861772
0.879287251147442
0.7265418858867281
0.6762282538601505
0.6213352321558504
0.6762282538601505
0.8099745615026245
0.6736475295806627
0.6736475295806627
0.9444684921127036
1.079325507960232
0.9444378691130668
0.9444378691130668
0.9360531848325859
1.001234425797847
1.074233254859064
0.879287251147442
0.809073547861772
0.671648864182428
0.7265418858867281
0.6213352321558504
0.7810972804881064
0.907040167310456
1.063434366570959
1.177330843236509
1.012693047274784
1.077874288240045
1.183487956462534
0.9982531256056979
0.9154454658948237
0.7399056980506741
0.7947987197549743
0.7262042587838063
0.6535345835969878
0.7955120540163252
0.5989791889956094
0.9116723851547465
1.055437396732486
0.8494724443816344
0.875
0.9261123068238322
1.020779135194106
0.8605600783309142
0.7672956103222773
0.625
0.6672360228638556
0.6112985607331322
0.625
0.6976696751868185
0.8201803946013784
0.875
0.9615807404509514
1.077433069931386
0.875
0.9401812409652616
1.085275751337041
0.827969460971168
1.026761981416213
1.026761981416213
1.199326516435409
0.9317085078955092
0.7525626968911187
0.7525626968911187
0.625
0.6798930217043002
0.625
0.625
0.783558652322963
0.6798930217043002
0.625
0.827969460971168
0.9401812409652616
0.875
1.085275751337041
0.875
0.875
1.036617695166982
0.1320342418134647
0.1413079254040601
0.4215302460739624
0.3950615604474677
0.4215302460739624
0.4832006102811677
0.1629010291243853
0.1413079254040601
0.1395588619068605
0.4166088037597377
0.3845692820580834
0.1282871952791834
0.1335154608891223
0.3998744066497116
0.4727083318917836
0.159153982590104
0.1568576281066471
0.4664662131711416
0.406366852081594
0.135649125109503
0.1351093486126949
0.4052459824763013
0.406366852081594
0.135649125109503
0.1335154608891223
0.1282871952791834
0.1395588619068605
0.159153982590104
0.4727083318917836
0.4166088037597377
0.3845692820580834
0.3998744066497116
0.6643197266145452
0.6400189580992665
0.6877702007891319
0.7727255284837483
1.052482944320271
0.9501187677019872
0.8942228434334777
0.9259011031858653
0.9420217511601395
0.6754313887148262
0.6751489196574832
0.9447021050370329
0.9420217511601395
0.6754313887148262
0.7643799882445753
1.04479124329211
1.052482944320271
0.7727255284837483
0.6643197266145452
0.9259011031858653
0.8942228434334777
0.6400189580992665
0.6877702007891319
0.9501187677019872
0.9581413331848063
1.069008907808231
0.7878304624191621
0.69493636959535
0.6551238920346802
0.69493636959535
0.9581413331848063
0.910748806921438
0
0
0
0
0
0.25
0.25
0.25
0.25
0.25
0.5
0.5
0.5
0.5
0.5
0.75
0.75
0.75
0.75
0.75
1
1
1
1
1
0
0
0
0
0
0.25
0.2958173310386882
0.3106074272945162
0.2850963694007222
0.2382655344739368
0.5
0.5848972652227785
0.6124636761129433
0.565563264092272
0.4792690407946307
0.75
0.8615281132941308
0.8981498555725463
0.8374760049236557
0.7253316594149468
1
1.121893446504023
1.162708821268428
1.098212205125492
0.9780043268010997
0
0
0
0
0
0.25
0.3106074272945162
0.3309137004394104
0.298872961768453
0.2391400479276735
0.5
0.6124636761129433
0.6504605293150504
0.591732716907574
0.481836436799866
0.75
0.8981498555725463
0.9490041182177866
0.873481514987493
0.7311040868906039
1
1.162708821268428
1.220105651629515
1.140713148069527
0.9889575035220223
0
0
0
0
0
0.25
0.2850963694007222
0.298872961768453
0.2849573789663617
0.2563923149611451
0.5
0.565563264092272
0.591732716907574
0.5667337020226444
0.5146659754467621
0.75
0.8374760049236557
0.873481514987493
0.8426322001847348
0.7764159091796615
1
1.098212205125492
1.140713148069527
1.110850950026045
1.042707812793251
0
0
0
0
0
0.25
0.2382655344739368
0.2391400479276735
0.2563923149611451
0.2823086032115997
0.5
0.4792690407946307
0.481836436799866
0.5146659754467621
0.5635045378368864
0.75
0.7253316594149468
0.7311040868906039
0.7764159091796615
0.8426445289954474
1
0.9780043268010997
0.9889575035220223
1.042707812793251
1.119098300562505
0
0.125
0.25
0.125
0
0.1483421672175248
0.2751468083801218
0.125
0
0
0.2751468083801218
0.25
0
0.1558667873109206
0.2832108286728905
0.125
0
0
0.3083576370530123
0.25
0
0.1558667873109206
0.3083576370530123
0
0.1661882244035687
0.3274437192519323
0
0.3274437192519323
0
0.125
0.25
0
0.2832108286728905
0.375
0.5
0.375
0.4631390498337001
0.6081876675693539
0.44159180652143
0.5616034861981473
0.5465841813712068
0.4927698923392512
0.6438109636595278
0.4631390498337001
0.6438109636595278
0.6081876675693539
0.5465841813712068
0.375
0.5616034861981473
0.375
0.5
0.5
0.375
0.5
0.625
0.75
0.625
0.7250602616300302
0.8111674114960834
0.625
0.8111674114960834
0.75
0.625
0.75
0.7577065703844819
0.892260735804617
0.8310933243085334
0.875
1
0.875
1.033260100886793
1.155746340684468
0.9938901401062443
1.088951068288468
1.066795272396001
1
0.875
1.066795272396001
0.875
1
0.8310933243085334
1.033260100886794
1.088951068288468
0.875
0.75
0.892260735804617
1.155746340684468
1
0.9397115512650055
1.088231751241709
1.208871163078001
0.9397115512650054
1.208871163078001
0.8028494205184286
0.7577065703844819
0.625
0.5356232960901738
0.7027891588883983
0.7974508154603885
0.625
0.5
0.597226782288321
0.8785441397689221
0.75
0.5851806808787816
0.7342560962098951
0.8640141312655955
0.6317648622499884
0.9251815427616789
1.009042436370671
1.128701295930076
0.9693416111354649
1.195496568326077
1.142075890682
1.053124822393532
0.875
1
0.7354699914966734
0.8507823354838779
0.9866254052480758
0.875
0.75
0.7829208069570619
1.039750227641608
1
0.7231698692610694
0.8588804179753333
0.9780169951221328
0.8042631935696031
1.0669680634106
0.4766891638855076
0.6054950191194763
0.6015495258254132
0.5235771946806345
0.5382926500836549
0.4879538985904606
0.625
0.5
0.26908608219892
0.4261780858178211
0.375
0.2432232212692779
0.3582656028899739
0.375
0.25
0.262309303468198
0
0.1428460571860439
0.125
0
0.1189565989822618
0.125
0
0
0
0
0.3022969108718105
0.25
0.2955201321410885
0.446404652723674
0.3206669405212103
0
0.1498233862931824
0
0
0.1193411997054429
0.2366118395259484
0
0.2698226681988389
0.3598366060076316
0.2949694765789607
0.4264284125290617
0.5848768314548616
0.2459597984433229
0.3851844220288337
0.4949134455581539
0.2711066068234447
0.5414976269293607
0
0.1426833669229677
0
0.1280751067992302
0
0
0.1498233862931824
0.3206669405212103
0
0.2949694765789607
0.446404652723674
0.6317648622499884
0.5848768314548616
0.2698226681988389
0.3598366060076316
0.5382926500836549
0.2711066068234447
0.3851844220288337
0.5414976269293607
0.2459597984433229
0.4949134455581539
0
0.1193411997054429
0
0.1280751067992302
0
0
0.1412258936067
0.2690951069320443
0
0.2690951069320443
0.4231104472937894
0.5386134273838915
0.5386134273838915
0.6450250276228029
0.8105664151911531
0.7055552807495065
0.7033796565643438
0.8089137444533945
0.6450250276228029
0.8089137444533945
0.8105664151911531
0.8654306050656864
0.7493990036950696
0.9777705580815775
1.133763335806601
0.9089532981155948
1.011112351898433
1.077907624294434
0.9089532981155948
1.077907624294434
0.981231332072422
1.080235789342185
1.080235789342185
0.8042631935696031
0.8588804179753333
1.0669680634106
1.009042436370671
0.8654306050656865
0.7493990036950696
1.011112351898433
1.133763335806601
0.9251815427616789
1.195496568326077
0.7342560962098951
0.6054950191194763
0.5235771946806345
0.6015495258254132
0.7829208069570619
0.7027891588883983
0.5851806808787816
0.4766891638855076
0.7231698692610694
0.8640141312655955
0.597226782288321
0.878544139768922
0.9693416111354649
1.142075890682
1.128701295930076
0.8507823354838779
1.039750227641608
0.9780169951221328
0.75
0.875
1
0.875
0.7974508154603885
0.7354699914966734
0.9866254052480758
1.053124822393532
0.75
1
0.5
0.625
0.5356232960901738
0.5
0.625
0.4879538985904606
0.25
0.375
0.375
0.262309303468198
0.3582656028899739
0.4261780858178211
0.26908608219892
0.2432232212692779
0.2955201321410885
0.2366118395259484
0.3022969108718105
0.25
0
0.125
0
0.1428460571860439
0
0
0
0.1189565989822618
0
0
0.125
0
0.125
0
0.1378120789445904
0.2638056674087286
0.125
0.1378120789445904
0
0.1547275069880653
0.2820116636299596
0.125
0.141915428043475
0.1547275069880653
0
0.164434548926968
0.3244130947032449
0.164434548926968
0.125
0
0.141915428043475
0.2820116636299596
0.375
0.423290001779994
0.5593282490043878
0.4115451830714676
0.4598351848514617
0.4876569088732027
0.638032692331334
0.4598351848514617
0.4876569088732027
0.4115451830714676
0.5593282490043878
0.375
0.423290001779994
0.375
0.5255690162183906
0.375
0.625
0.6798930217043002
0.783558652322963
0.625
0.6798930217043002
0.625
0.6976696751868185
0.827969460971168
0.7525626968911187
0.875
0.9615807404509514
1.085275751337041
0.9401812409652616
1.026761981416213
0.875
1.036617695166982
0.875
0.9401812409652616
0.827969460971168
1.026761981416213
1.085275751337041
0.875
0.9615807404509514
0.9317085078955092
1.077874288240045
1.199326516435409
1.077874288240045
0.7947987197549743
0.7525626968911187
0.7947987197549743
0.625
0.6976696751868185
0.5531354271085553
0.7399056980506741
0.8201803946013784
0.625
0.6672360228638556
0.6248915130966599
0.7810972804881064
0.9154454658948237
0.7262042587838063
1.063434366570959
1.183487956462534
1.012693047274784
0.9982531256056979
1.077433069931386
0.875
0.9261123068238322
0.7672956103222773
0.9116723851547465
1.020779135194106
0.875
0.8605600783309142
0.7955120540163252
0.9360531848325859
1.055437396732486
0.8494724443816344
0.5324044679031861
0.671648864182428
0.6535345835969878
0.5989791889956094
0.5124278369837166
0.625
0.6112985607331322
0.402821724021741
0.2565006057361656
0.3931340693861268
0.375
0.3653123453643858
0.1347070419389026
0
0.131221658916713
0.125
0.1215146169778103
0
0.1516224699823776
0.2785957636645566
0.125
0.451111725801735
0.375
0.3171080330306817
0.4779692542375884
0.4414240711661208
0
0.1609491659047783
0.1481370869601879
0
0.1349983694673649
0.2668612981384934
0.11808294142389
0.4043055148992912
0.3560155131192972
0.4408506979707589
0.2711517115576331
0.4064332354413507
0.5411646858042538
0.369888052369883
0.1478104484119553
0
0.1355993461288042
0.1227872671842138
0.1609491659047783
0
0.1478104484119553
0.3126786291771816
0.4779692542375884
0.4408506979707589
0.6173017331259646
0.4043055148992912
0.2711517115576331
0.369888052369883
0.5411646858042538
0.4064332354413507
0.1349983694673649
0
0.1227872671842138
0.1355993461288042
0
0.1345203228035739
0.2701979823698738
0.1345203228035739
0.4037767207921343
0.5402349916651528
0.4037767207921343
0.6762282538601505
0.6736475295806627
0.8099745615026244
0.6762282538601505
0.6736475295806627
0.7265418858867281
0.809073547861772
0.6213352321558504
1.001234425797847
0.9444684921127037
1.074233254859064
0.879287251147442
0.9444684921127036
0.9444378691130668
1.079325507960232
0.9444378691130668
0.9360531848325859
0.809073547861772
0.879287251147442
1.074233254859064
1.001234425797847
1.063434366570959
0.907040167310456
1.177330843236509
0.7810972804881064
0.7265418858867281
0.671648864182428
0.6213352321558504
0.6535345835969878
0.5324044679031861
0.5989791889956094
0.7955120540163252
0.7262042587838063
0.7399056980506741
0.6248915130966599
0.9154454658948237
1.012693047274784
0.9982531256056979
1.183487956462534
0.9116723851547465
0.8494724443816344
1.055437396732486
0.875
0.7672956103222773
0.8605600783309142
1.020779135194106
0.9261123068238322
0.875
0.8201803946013784
1.077433069931386
0.625
0.5531354271085553
0.6672360228638556
0.625
0.5124278369837166
0.6112985607331322
0.375
0.2565006057361656
0.3653123453643858
0.402821724021741
0.3931340693861268
0.2668612981384934
0.3560155131192972
0.4414240711661208
0.451111725801735
0.3171080330306818
0.375
0.2785957636645566
0.125
0
0.1347070419389026
0.1516224699823776
0
0.1481370869601879
0.131221658916713
0
0.11808294142389
0.125
0
0.1215146169778103
0.1320342418134647
0.1413079254040601
0.1629010291243853
0.1413079254040601
0.4215302460739624
0.4832006102811677
0.4215302460739624
0.3950615604474677
0.6551238920346802
0.69493636959535
0.9581413331848063
0.910748806921438
0.9581413331848063
1.069008907808231
0.7878304624191621
0.69493636959535
0.6877702007891319
0.7727255284837483
1.052482944320271
0.9501187677019872
0.8942228434334777
0.9259011031858653
0.6643197266145452
0.6400189580992665
0.3845692820580834
0.1282871952791834
0.1395588619068605
0.4166088037597377
0.4727083318917836
0.159153982590104
0.1335154608891223
0.3998744066497116
0.406366852081594
0.135649125109503
0.1568576281066471
0.4664662131711416
0.406366852081594
0.135649125109503
0.1351093486126949
0.4052459824763013
0.6751489196574832
0.6754313887148262
0.9420217511601395
0.9447021050370329
0.9420217511601395
1.04479124329211
0.7643799882445753
0.6754313887148262
0.6643197266145452
0.7727255284837483
1.052482944320271
0.9259011031858653
0.8942228434334777
0.9501187677019872
0.6877702007891319
0.6400189580992665
0.3845692820580834
0.3998744066497116
0.4727083318917836
0.4166088037597377
0.1395588619068605
0.159153982590104
0.1335154608891223
0.1282871952791834
0
0
0
0
0
0
0
0
0
0
0
0
0
0
0
0
0
0
0
0
0
0
0
0
0
0.25
0.25
0.25
0.25
0.25
0.25
0.2958173310386882
0.3106074272945162
0.2850963694007222
0.2382655344739368
0.25
0.3106074272945162
0.3309137004394104
0.298872961768453
0.2391400479276735
0.25
0.2850963694007222
0.298872961768453
0.2849573789663617
0.2563923149611451
0.25
0.2382655344739368
0.2391400479276735
0.2563923149611451
0.2823086032115997
0.5
0.5
0.5
0.5
0.5
0.5
0.5848972652227785
0.6124636761129433
0.565563264092272
0.4792690407946307
0.5
0.6124636761129433
0.6504605293150504
0.591732716907574
0.481836436799866
0.5
0.565563264092272
0.591732716907574
0.5667337020226444
0.5146659754467621
0.5
0.4792690407946307
0.481836436799866
0.5146659754467621
0.5635045378368864
0.75
0.75
0.75
0.75
0.75
0.75
0.8615281132941308
0.8981498555725463
0.8374760049236557
0.7253316594149468
0.75
0.8981498555725463
0.9490041182177866
0.873481514987493
0.7311040868906039
0.75
0.8374760049236557
0.873481514987493
0.8426322001847348
0.7764159091796615
0.75
0.7253316594149468
0.7311040868906039
0.7764159091796615
0.8426445289954474
1
1
1
1
1
1
1.121893446504023
1.162708821268428
1.098212205125492
0.9780043268010997
1
1.162708821268428
1.220105651629515
1.140713148069527
0.9889575035220222
1
1.098212205125492
1.140713148069527
1.110850950026045
1.042707812793251
1
0.9780043268010997
0.9889575035220222
1.042707812793251
1.119098300562505
0
0
0
0
0.25
0.2751468083801218
0.2751468083801218
0.25
0.125
0.125
0.1483421672175248
0.125
0.5
0.5465841813712068
0.5465841813712068
0.5
0.375
0.375
0.44159180652143
0.375
0.25
0.2832108286728905
0.3083576370530122
0.5
0.5616034861981473
0.6081876675693539
0.375
0.4631390498337001
0
0
0
0.125
0.1558667873109206
0
0
0
0.3274437192519323
0.3274437192519323
0.3083576370530123
0.1661882244035687
0.1558667873109206
0.6438109636595278
0.6438109636595278
0.6081876675693539
0.4927698923392512
0.4631390498337001
0.2832108286728905
0.25
0.5616034861981473
0.5
0.375
0
0
0.125
0
0
0
0.3022969108718105
0.26908608219892
0.25
0.1428460571860439
0.125
0
0
0.3206669405212103
0.2955201321410885
0.1498233862931824
0
0
0
0.2698226681988389
0.2366118395259484
0.262309303468198
0.1193411997054429
0.1189565989822618
0
0
0.2432232212692779
0.25
0.125
0.5356232960901738
0.5235771946806345
0.4879538985904606
0.5
0.375
0.4261780858178211
0.3582656028899739
0.375
0.5851806808787816
0.5382926500836549
0.4766891638855076
0.446404652723674
0.3598366060076316
0.6317648622499884
0.597226782288321
0.5
0.8310933243085334
0.8785441397689221
0.7974508154603885
0.75
0.625
0.7577065703844819
0.7027891588883983
0.625
0.9397115512650055
0.9251815427616789
0.8640141312655955
0.8028494205184286
0.7342560962098951
0.8042631935696031
0.7231698692610694
0.7829208069570619
0.6054950191194763
0.6015495258254132
0.7354699914966734
0.75
0.625
1.053124822393532
1.039750227641608
0.9866254052480758
1
0.875
0.9693416111354649
0.8507823354838779
0.875
1.128701295930076
1.0669680634106
0.9780169951221328
1.009042436370671
0.8588804179753333
1.208871163078001
1.195496568326077
1.142075890682
1.033260100886794
1.088231751241709
1.088951068288468
1
0.875
0.8111674114960834
0.892260735804617
0.75
1.066795272396001
1.155746340684468
1
0.875
0.9938901401062443
0.75
0.8111674114960834
0.75
1
1.066795272396001
1
0.875
0.875
0.625
0.625
0.7250602616300302
0.625
0.892260735804617
0.9397115512650055
0.7577065703844819
0.75
0.8310933243085334
0.625
1
1.088951068288468
1.155746340684468
0.875
1.033260100886793
1.208871163078001
0.878544139768922
0.8640141312655955
0.9251815427616789
1.142075890682
1.128701295930076
1.195496568326077
0.9693416111354649
1.009042436370671
0.75
0.7974508154603885
1
1.053124822393532
0.875
0.5
0.5356232960901738
0.597226782288321
0.625
0.7027891588883983
0.5851806808787816
0.6317648622499884
0.7342560962098951
0.5235771946806345
0.4766891638855076
0.5382926500836549
0.7829208069570619
0.7231698692610694
0.8042631935696031
0.6015495258254132
0.6054950191194763
0.5
0.4879538985904606
0.75
0.7354699914966734
0.625
1
0.9866254052480758
1.039750227641608
0.875
0.8507823354838779
0.9780169951221328
1.0669680634106
0.8588804179753333
0.7493990036950696
0.8105664151911531
0.8654306050656865
1.011112351898433
1.077907624294434
1.133763335806601
0.9089532981155948
0.9777705580815775
0.8654306050656865
1.133763335806601
0.8105664151911531
0.7493990036950696
1.077907624294434
1.011112351898433
0.9089532981155948
0.8089137444533945
0.8089137444533945
1.080235789342185
1.080235789342185
0.981231332072422
0.5414976269293607
0.5386134273838915
0.5386134273838915
0.5414976269293607
0.7055552807495065
0.6450250276228029
0.7033796565643438
0.6450250276228029
0.5848768314548616
0.4949134455581539
0.5848768314548616
0.4949134455581539
0.2698226681988389
0.2459597984433229
0.2711066068234447
0.2949694765789607
0.446404652723674
0.3598366060076316
0.3851844220288337
0.4264284125290617
0.3206669405212103
0.2949694765789607
0.2711066068234447
0.2459597984433229
0.3851844220288337
0.2690951069320443
0.2690951069320443
0.4231104472937894
0
0
0
0
0.1426833669229677
0.1280751067992302
0.1412258936067
0.1280751067992302
0
0
0
0
0.1498233862931824
0
0
0.1193411997054429
0
0
0
0.262309303468198
0.2366118395259484
0.2955201321410885
0.1428460571860439
0.1189565989822618
0.4261780858178211
0.3582656028899739
0.3022969108718105
0
0
0
0.25
0.26908608219892
0.125
0.375
0.25
0.2432232212692779
0.375
0
0
0.125
0
0.125
0.1378120789445904
0.1378120789445904
0.125
0.2638056674087286
0.375
0.4115451830714676
0.4115451830714676
0.375
0.5255690162183906
0.2820116636299596
0.375
0.423290001779994
0.4598351848514617
0.5593282490043878
0
0.125
0.141915428043475
0.1547275069880653
0
0.164434548926968
0.164434548926968
0.1547275069880653
0.3244130947032449
0.4876569088732027
0.4876569088732027
0.4598351848514617
0.638032692331334
0.2820116636299596
0.423290001779994
0.375
0.5593282490043878
0
0.141915428043475
0.125
0
0.1516224699823776
0.1347070419389026
0.125
0.2785957636645566
0
0.1609491659047783
0.1481370869601879
0.3171080330306818
0
0.1349983694673649
0.11808294142389
0.131221658916713
0.2668612981384934
0
0.1215146169778103
0.125
0.2565006057361656
0.402821724021741
0.3931340693861268
0.3653123453643858
0.375
0.5124278369837166
0.4414240711661208
0.4043055148992912
0.3560155131192972
0.5324044679031861
0.4779692542375884
0.451111725801735
0.6248915130966599
0.375
0.5531354271085553
0.6976696751868185
0.7399056980506742
0.6672360228638556
0.625
0.8201803946013784
0.7947987197549743
0.7810972804881064
0.7262042587838063
0.9154454658948237
0.671648864182428
0.5989791889956094
0.6535345835969878
0.7955120540163252
0.6112985607331322
0.625
0.7672956103222773
0.9261123068238322
0.9116723851547465
0.8605600783309142
0.875
1.020779135194106
0.9982531256056979
0.9360531848325859
0.8494724443816344
1.055437396732486
1.077874288240045
1.063434366570959
1.012693047274784
1.183487956462534
0.9615807404509515
0.875
1.077433069931386
0.827969460971168
0.9401812409652616
1.026761981416213
0.875
1.085275751337041
0.783558652322963
0.875
0.9401812409652616
0.875
1.036617695166982
0.625
0.6798930217043002
0.6798930217043002
0.625
0.7525626968911188
0.625
0.7525626968911187
0.7947987197549743
0.9317085078955092
0.625
0.6976696751868185
0.827969460971168
0.875
0.9615807404509514
1.026761981416213
1.085275751337041
1.077874288240045
1.199326516435409
0.9154454658948237
1.012693047274784
0.9982531256056979
1.063434366570959
1.183487956462534
0.8201803946013784
0.875
0.9261123068238322
1.077433069931386
0.5531354271085553
0.625
0.6672360228638556
0.7399056980506741
0.6248915130966599
0.7262042587838063
0.7810972804881064
0.5324044679031861
0.6535345835969878
0.5989791889956094
0.671648864182428
0.7955120540163252
0.5124278369837166
0.625
0.6112985607331322
0.7672956103222773
0.875
0.8605600783309142
0.9116723851547465
1.020779135194106
0.8494724443816344
0.9360531848325859
1.055437396732486
0.809073547861772
0.879287251147442
0.9444684921127036
1.001234425797847
1.074233254859064
0.907040167310456
1.001234425797847
1.177330843236509
0.809073547861772
0.9444684921127037
0.879287251147442
1.074233254859064
0.8099745615026244
0.9444378691130668
0.9444378691130668
1.079325507960232
0.5402349916651528
0.6762282538601505
0.6736475295806627
0.6736475295806627
0.6762282538601505
0.5411646858042538
0.7265418858867281
0.6213352321558504
0.6173017331259646
0.7265418858867281
0.5411646858042538
0.6213352321558504
0.2711517115576331
0.4043055148992912
0.369888052369883
0.4064332354413507
0.4408506979707589
0.3126786291771816
0.4779692542375884
0.4408506979707589
0.2711517115576331
0.4064332354413507
0.369888052369883
0.2701979823698738
0.4037767207921343
0.4037767207921343
0
0.1355993461288042
0.1345203228035739
0.1345203228035739
0.1355993461288042
0
0.1478104484119553
0.1227872671842138
0
0.1609491659047783
0.1478104484119553
0
0.1349983694673649
0.1227872671842138
0
0.131221658916713
0.11808294142389
0.1481370869601879
0.2668612981384934
0.3931340693861268
0.3560155131192972
0.4414240711661208
0.3171080330306817
0.451111725801735
0
0.1516224699823776
0
0.125
0.1347070419389026
0.2785957636645566
0.375
0.402821724021741
0.2565006057361656
0.375
0.3653123453643858
0
0.125
0.1215146169778103
0.1320342418134647
0.3950615604474677
0.4215302460739624
0.1413079254040601
0.1629010291243853
0.4832006102811677
0.4215302460739624
0.1413079254040601
0.1395588619068605
0.159153982590104
0.1335154608891223
0.1282871952791834
0.3845692820580834
0.3998744066497116
0.4727083318917836
0.4166088037597377
0.6877702007891319
0.7727255284837483
0.6643197266145452
0.6400189580992665
0.8942228434334777
0.9259011031858653
1.052482944320271
0.9501187677019872
0.9581413331848063
0.910748806921438
0.6551238920346802
0.69493636959535
0.7878304624191621
0.69493636959535
0.9581413331848063
1.069008907808231
1.052482944320271
0.9501187677019872
0.6877702007891319
0.7727255284837483
0.6643197266145452
0.6400189580992665
0.8942228434334777
0.9259011031858653
0.9420217511601395
1.04479124329211
0.9420217511601395
0.9447021050370329
0.6751489196574832
0.6754313887148262
0.7643799882445753
0.6754313887148262
0.406366852081594
0.4664662131711416
0.406366852081594
0.4052459824763013
0.1351093486126949
0.135649125109503
0.1568576281066471
0.135649125109503
0.1335154608891223
0.3998744066497116
0.4727083318917836
0.159153982590104
0.1395588619068605
0.4166088037597377
0.3845692820580834
0.1282871952791834
