MFEM mesh v1.0

#
# MFEM Geometry Types (see fem/geom.hpp):
#
# POINT       = 0
# SEGMENT     = 1
# TRIANGLE    = 2
# SQUARE      = 3
# TETRAHEDRON = 4
# CUBE        = 5
# PRISM       = 6
# PYRAMID     = 7
#

dimension
3

elements
64
1 5 0 1 6 5 25 26 31 30
1 5 25 26 31 30 50 51 56 55
1 5 26 27 32 31 51 52 57 56
1 5 1 2 7 6 26 27 32 31
1 5 6 7 12 11 31 32 37 36
1 5 31 32 37 36 56 57 62 61
1 5 30 31 36 35 55 56 61 60
1 5 5 6 11 10 30 31 36 35
1 5 10 11 16 15 35 36 41 40
1 5 11 12 17 16 36 37 42 41
1 5 16 17 22 21 41 42 47 46
1 5 15 16 21 20 40 41 46 45
1 5 40 41 46 45 65 66 71 70
1 5 41 42 47 46 66 67 72 71
1 5 36 37 42 41 61 62 67 66
1 5 35 36 41 40 60 61 66 65
1 5 60 61 66 65 85 86 91 90
1 5 61 62 67 66 86 87 92 91
1 5 66 67 72 71 91 92 97 96
1 5 65 66 71 70 90 91 96 95
1 5 90 91 96 95 115 116 121 120
1 5 91 92 97 96 116 117 122 121
1 5 86 87 92 91 111 112 117 116
1 5 85 86 91 90 110 111 116 115
1 5 80 81 86 85 105 106 111 110
1 5 75 76 81 80 100 101 106 105
1 5 50 51 56 55 75 76 81 80
1 5 55 56 61 60 80 81 86 85
1 5 56 57 62 61 81 82 87 86
1 5 51 52 57 56 76 77 82 81
1 5 76 77 82 81 101 102 107 106
1 5 81 82 87 86 106 107 112 111
1 5 82 83 88 87 107 108 113 112
1 5 77 78 83 82 102 103 108 107
1 5 52 53 58 57 77 78 83 82
1 5 57 58 63 62 82 83 88 87
1 5 58 59 64 63 83 84 89 88
1 5 53 54 59 58 78 79 84 83
1 5 78 79 84 83 103 104 109 108
1 5 83 84 89 88 108 109 114 113
1 5 88 89 94 93 113 114 119 118
1 5 87 88 93 92 112 113 118 117
1 5 92 93 98 97 117 118 123 122
1 5 93 94 99 98 118 119 124 123
1 5 68 69 74 73 93 94 99 98
1 5 67 68 73 72 92 93 98 97
1 5 62 63 68 67 87 88 93 92
1 5 63 64 69 68 88 89 94 93
1 5 38 39 44 43 63 64 69 68
1 5 37 38 43 42 62 63 68 67
1 5 42 43 48 47 67 68 73 72
1 5 43 44 49 48 68 69 74 73
1 5 18 19 24 23 43 44 49 48
1 5 17 18 23 22 42 43 48 47
1 5 12 13 18 17 37 38 43 42
1 5 13 14 19 18 38 39 44 43
1 5 8 9 14 13 33 34 39 38
1 5 33 34 39 38 58 59 64 63
1 5 32 33 38 37 57 58 63 62
1 5 7 8 13 12 32 33 38 37
1 5 2 3 8 7 27 28 33 32
1 5 27 28 33 32 52 53 58 57
1 5 28 29 34 33 53 54 59 58
1 5 3 4 9 8 28 29 34 33

boundary
96
1 3 0 5 6 1
1 3 1 6 7 2
1 3 2 7 8 3
1 3 3 8 9 4
1 3 5 10 11 6
1 3 6 11 12 7
1 3 7 12 13 8
1 3 8 13 14 9
1 3 10 15 16 11
1 3 11 16 17 12
1 3 12 17 18 13
1 3 13 18 19 14
1 3 15 20 21 16
1 3 16 21 22 17
1 3 17 22 23 18
1 3 18 23 24 19
6 3 100 101 106 105
6 3 101 102 107 106
6 3 102 103 108 107
6 3 103 104 109 108
6 3 105 106 111 110
6 3 106 107 112 111
6 3 107 108 113 112
6 3 108 109 114 113
6 3 110 111 116 115
6 3 111 112 117 116
6 3 112 113 118 117
6 3 113 114 119 118
6 3 115 116 121 120
6 3 116 117 122 121
6 3 117 118 123 122
6 3 118 119 124 123
5 3 0 25 30 5
5 3 5 30 35 10
5 3 10 35 40 15
5 3 15 40 45 20
5 3 25 50 55 30
5 3 30 55 60 35
5 3 35 60 65 40
5 3 40 65 70 45
5 3 50 75 80 55
5 3 55 80 85 60
5 3 60 85 90 65
5 3 65 90 95 70
5 3 75 100 105 80
5 3 80 105 110 85
5 3 85 110 115 90
5 3 90 115 120 95
3 3 4 9 34 29
3 3 9 14 39 34
3 3 14 19 44 39
3 3 19 24 49 44
3 3 29 34 59 54
3 3 34 39 64 59
3 3 39 44 69 64
3 3 44 49 74 69
3 3 54 59 84 79
3 3 59 64 89 84
3 3 64 69 94 89
3 3 69 74 99 94
3 3 79 84 109 104
3 3 84 89 114 109
3 3 89 94 119 114
3 3 94 99 124 119
2 3 0 1 26 25
2 3 25 26 51 50
2 3 50 51 76 75
2 3 75 76 101 100
2 3 1 2 27 26
2 3 26 27 52 51
2 3 51 52 77 76
2 3 76 77 102 101
2 3 2 3 28 27
2 3 27 28 53 52
2 3 52 53 78 77
2 3 77 78 103 102
2 3 3 4 29 28
2 3 28 29 54 53
2 3 53 54 79 78
2 3 78 79 104 103
4 3 20 45 46 21
4 3 45 70 71 46
4 3 70 95 96 71
4 3 95 120 121 96
4 3 21 46 47 22
4 3 46 71 72 47
4 3 71 96 97 72
4 3 96 121 122 97
4 3 22 47 48 23
4 3 47 72 73 48
4 3 72 97 98 73
4 3 97 122 123 98
4 3 23 48 49 24
4 3 48 73 74 49
4 3 73 98 99 74
4 3 98 123 124 99

vertices
125

nodes
FiniteElementSpace
FiniteElementCollection: H1_3D_P2
VDim: 3
Ordering: 0

0
0.25
0.5
0.75
1
0
0.25
0.5
0.75
1
0
0.25
0.5
0.75
1
0
0.25
0.5
0.75
1
0
0.25
0.5
0.75
1
0
0.25
0.5
0.75
1
0
0.253125
0.50625
0.759375
1.0125
0
0.25625
0.5125
0.76875
1.025
0
0.259375
0.51875
0.778125
1.0375
0
0.2625
0.525
0.7875
1.05
0
0.25
0.5
0.75
1
0
0.25625
0.5125
0.76875
1.025
0
0.2625
0.525
0.7875
1.05
0
0.26875
0.5375
0.80625
1.075
0
0.275
0.55
0.825
1.1
0
0.25
0.5
0.75
1
0
0.259375
0.51875
0.778125
1.0375
0
0.26875
0.5375
0.80625
1.075
0
0.278125
0.55625
0.834375
1.1125
0
0.2875
0.575
0.8625
1.15
0
0.25
0.5
0.75
1
0
0.2625
0.525
0.7875
1.05
0
0.275
0.55
0.825
1.1
0
0.2875
0.575
0.8625
1.15
0
0.3
0.6
0.9
1.2
0.125
0.25
0.125
0
0.125
0.2515625
0.1265625
0
0
0.25
0.2515625
0
0.125
0.253125
0.128125
0
0
0.25
0.2546875
0
0.375
0.503125
0.3796875
0.375
0.50625
0.384375
0.5
0.509375
0.375
0.5
0.375
0.5
0.503125
0.5
0.375
0.25
0.509375
0.384375
0.2546875
0.50625
0.253125
0.51875
0.39375
0.259375
0.51875
0.259375
0.128125
0
0.13125
0
0
0.125
0
0
0.25
0.125
0
0.2578125
0.1296875
0
0.2546875
0
0.5
0.375
0.515625
0.3890625
0.509375
0.5
0.375
0.25
0.521875
0.39375
0.2609375
0.5125
0.25625
0.125
0
0.13125
0
0
0.134375
0.271875
0.1375
0
0
0.2640625
0.26875
0
0.403125
0.54375
0.4125
0.528125
0.5375
0.53125
0.265625
0
0.134375
0.2734375
0.1390625
0
0
0.265625
0.2734375
0
0.403125
0.546875
0.4171875
0.53125
0.546875
0.565625
0.43125
0.2828125
0.5625
0.28125
0.14375
0
0
0.14375
0.29375
0.15
0
0
0.2828125
0.29375
0
0.43125
0.5875
0.45
0.565625
0.5875
0.4125
0.5625
0.28125
0.271875
0.54375
0.1375
0
0
0.1296875
0.2640625
0
0.13125
0.26875
0
0
0.2609375
0.125
0.2546875
0
0.125
0.25625
0
0
0.25
0
0.25
0.2578125
0
0.3890625
0.528125
0.515625
0.375
0.509375
0.5
0.375
0.5125
0.39375
0.5
0.521875
0.5375
0.6484375
0.7921875
0.671875
0.65625
0.80625
0.6875
0.7828125
0.815625
0.625
0.7640625
0.625
0.76875
0.75
0.625
0.759375
0.640625
0.75
0.7734375
0.778125
0.65625
0.796875
0.896875
1.0375
0.91875
0.9078125
1.05625
0.940625
1.03125
1.0625
0.875
1.0125
0.875
1.01875
1
0.875
1.025
0.91875
1
1.04375
1.075
0.9625
1.0875
1.09375
0.9734375
0.8203125
1.125
1.00625
0.84375
1.13125
0.8484375000000001
0.6953125
0.71875
0.8484375000000001
0.71875
0.8812500000000001
0.75
0.88125
1.13125
1.00625
1.175
1.05
1.175
0.940625
1.0875
0.9625
0.815625
0.8203125
1.09375
1.125
0.84375
0.671875
0.6875
0.796875
1.0625
0.896875
1.03125
0.9078125
0.7734375
0.778125
1.0375
1.05625
0.7921875
0.640625
0.6484375
0.7828125
0.65625
0.80625
1.04375
0.91875
1.075
0.875
1
0.875
0.75
0.7640625
1.01875
1.025
0.76875
0.625
0.625
0.625
0.75
0.759375
0.875
1
1.0125
0.875
1
0.75
0.8859375
1.01875
0.7640625
0.7546875
1.00625
0.7640625
1.01875
0.6328125
0.625
0.625
0.75
0.625
0.7546875
0.75
0.75
0.875
1.00625
1
0.875
1
1
0.125
0.125
0.25078125
0.12578125
0
0.12578125
0.125
0.25234375
0.12734375
0
0.1265625
0.37734375
0.375
0.5046875
0.38203125
0.3796875
0.375
0.375
0.5015625
0.37734375
0.375
0.5046875
0.3796875
0.25234375
0.38203125
0.5140625
0.3890625
0.25703125
0.3890625
0.12734375
0.1296875
0
0.1296875
0.125
0.1265625
0
0.125
0.25390625
0.12734375
0
0.12890625
0.375
0.5078125
0.38203125
0.38671875
0.375
0.5109375
0.384375
0.25546875
0.39140625
0.125
0.128125
0
0.13046875
0.13203125
0.26640625
0.134375
0
0.1359375
0.39609375
0.5328125
0.403125
0.4078125
0.5234375
0.26171875
0.3984375
0
0.1328125
0.1328125
0.26953125
0.13671875
0
0.13671875
0.3984375
0.5390625
0.41015625
0.41015625
0.5546875
0.421875
0.27734375
0.42421875
0.140625
0
0.14140625
0.14140625
0.28828125
0.146875
0
0.146875
0.42421875
0.5765625
0.440625
0.440625
0.4078125
0.5546875
0.27734375
0.421875
0.1359375
0
0.140625
0.13203125
0.13046875
0.26640625
0
0.134375
0.12734375
0.125
0.25546875
0
0.128125
0.125
0.25390625
0.12890625
0
0.26171875
0
0.38671875
0.5234375
0.39609375
0.375
0.5078125
0.38203125
0.375
0.5109375
0.39140625
0.384375
0.5328125
0.403125
0.66015625
0.65234375
0.79921875
0.6796875
0.671875
0.63671875
0.625
0.76640625
0.640625
0.6328125
0.625
0.76171875
0.64453125
0.6484375
0.78515625
0.6640625
0.9078125
0.90234375
1.046875
0.9296875
0.92421875
0.8859375
0.875
1.015625
0.89140625
0.875
1.021875
0.91328125
0.896875
1.065625
0.9515625
0.940625
0.95703125
1.109375
0.98984375
0.83203125
0.984375
0.68359375
0.70703125
0.703125
0.70703125
0.86484375
0.734375
0.734375
0.98984375
1.153125
1.028125
1.028125
0.9515625
0.95703125
1.109375
0.984375
0.83203125
0.6796875
0.68359375
0.703125
0.6640625
0.80859375
0.9296875
1.078125
0.90234375
0.9078125
1.046875
0.92421875
0.78515625
0.64453125
0.6484375
0.66015625
0.65234375
0.79921875
0.671875
0.91328125
1.065625
0.940625
0.875
0.89140625
1.021875
0.896875
0.76640625
0.625
0.63671875
0.640625
0.625
0.6328125
0.76171875
0.875
0.8859375
1.015625
0.875
0.88046875
1.009375
0.75703125
0.89140625
0.89140625
1.028125
0.77109375
0.63671875
0.63671875
0.625
0.62890625
0.625
0.625
0.75234375
0.62890625
0.625
0.75703125
0.88046875
0.875
1.009375
0.875
0.875
1.003125
0.125390625
0.126171875
0.378515625
0.376171875
0.378515625
0.385546875
0.128515625
0.126171875
0.126953125
0.380859375
0.383203125
0.127734375
0.133203125
0.399609375
0.392578125
0.130859375
0.134765625
0.404296875
0.416015625
0.138671875
0.144140625
0.432421875
0.416015625
0.138671875
0.133203125
0.127734375
0.126953125
0.130859375
0.392578125
0.380859375
0.383203125
0.399609375
0.666015625
0.638671875
0.634765625
0.654296875
0.916015625
0.888671875
0.894140625
0.932421875
0.970703125
0.693359375
0.720703125
1.008984375
0.970703125
0.693359375
0.673828125
0.943359375
0.916015625
0.654296875
0.666015625
0.932421875
0.894140625
0.638671875
0.634765625
0.888671875
0.883203125
0.899609375
0.642578125
0.630859375
0.626953125
0.630859375
0.883203125
0.877734375
0
0
0
0
0
0.25
0.25
0.25
0.25
0.25
0.5
0.5
0.5
0.5
0.5
0.75
0.75
0.75
0.75
0.75
1
1
1
1
1
0
0
0
0
0
0.25
0.253125
0.25625
0.259375
0.2625
0.5
0.50625
0.5125
0.51875
0.525
0.75
0.759375
0.76875
0.778125
0.7875
1
1.0125
1.025
1.0375
1.05
0
0
0
0
0
0.25
0.25625
0.2625
0.26875
0.275
0.5
0.5125
0.525
0.5375
0.55
0.75
0.76875
0.7875
0.80625
0.825
1
1.025
1.05
1.075
1.1
0
0
0
0
0
0.25
0.259375
0.26875
0.278125
0.2875
0.5
0.51875
0.5375
0.55625
0.575
0.75
0.778125
0.80625
0.834375
0.8625
1
1.0375
1.075
1.1125
1.15
0
0
0
0
0
0.25
0.2625
0.275
0.2875
0.3
0.5
0.525
0.55
0.575
0.6
0.75
0.7875
0.825
0.8625
0.9
1
1.05
1.1
1.15
1.2
0
0.125
0.25
0.125
0
0.1265625
0.2515625
0.125
0
0
0.2515625
0.25
0
0.128125
0.253125
0.125
0
0
0.2546875
0.25
0
0.128125
0.2546875
0
0.13125
0.259375
0
0.259375
0
0.125
0.25
0
0.253125
0.375
0.5
0.375
0.384375
0.509375
0.3796875
0.50625
0.503125
0.39375
0.51875
0.384375
0.51875
0.509375
0.503125
0.375
0.50625
0.375
0.5
0.5
0.375
0.5
0.625
0.75
0.625
0.6328125
0.7546875
0.625
0.7546875
0.75
0.625
0.75
0.640625
0.7640625
0.759375
0.875
1
0.875
0.896875
1.01875
0.8859375
1.0125
1.00625
1
0.875
1.00625
0.875
1
0.759375
0.896875
1.0125
0.875
0.75
0.7640625
1.01875
1
0.778125
0.91875
1.0375
0.778125
1.0375
0.65625
0.640625
0.625
0.509375
0.6484375
0.7640625
0.625
0.5
0.515625
0.7734375
0.75
0.528125
0.671875
0.7921875
0.53125
0.796875
0.940625
1.05625
0.9078125
1.0625
1.03125
1.01875
0.875
1
0.76875
0.91875
1.025
0.875
0.75
0.7828125
1.04375
1
0.80625
0.9625
1.075
0.815625
1.0875
0.5375
0.6875
0.65625
0.521875
0.54375
0.5125
0.625
0.5
0.2546875
0.3890625
0.375
0.25625
0.39375
0.375
0.25
0.2609375
0
0.1296875
0.125
0
0.13125
0.125
0
0
0
0
0.2578125
0.25
0.2640625
0.403125
0.265625
0
0.134375
0
0
0.1375
0.26875
0
0.271875
0.4125
0.2734375
0.4171875
0.546875
0.28125
0.43125
0.5625
0.2828125
0.565625
0
0.1390625
0
0.14375
0
0
0.134375
0.265625
0
0.2734375
0.403125
0.53125
0.546875
0.271875
0.4125
0.54375
0.2828125
0.43125
0.565625
0.28125
0.5625
0
0.1375
0
0.14375
0
0
0.15
0.29375
0
0.29375
0.45
0.5875
0.5875
0.71875
0.8484375
0.6953125
0.75
0.88125
0.71875
0.88125
0.8484375000000001
0.8203125
0.84375
0.9734375000000001
1.09375
1.00625
1.125
1.13125
1.00625
1.13125
1.05
1.175
1.175
0.815625
0.9625
1.0875
0.940625
0.8203125
0.84375
1.125
1.09375
0.796875
1.0625
0.671875
0.6875
0.521875
0.65625
0.7828125
0.6484375
0.528125
0.5375
0.80625
0.7921875
0.515625
0.7734375
0.9078125
1.03125
1.05625
0.91875
1.04375
1.075
0.75
0.875
1
0.875
0.7640625
0.76875
1.025
1.01875
0.75
1
0.5
0.625
0.509375
0.5
0.625
0.5125
0.25
0.375
0.375
0.2609375
0.39375
0.3890625
0.2546875
0.25625
0.2640625
0.26875
0.2578125
0.25
0
0.125
0
0.1296875
0
0
0
0.13125
0
0
0.125
0
0.125
0
0.12578125
0.25078125
0.125
0.12578125
0
0.12734375
0.25234375
0.125
0.1265625
0.12734375
0
0.1296875
0.25703125
0.1296875
0.125
0
0.1265625
0.25234375
0.375
0.3796875
0.5046875
0.37734375
0.38203125
0.3890625
0.5140625
0.38203125
0.3890625
0.37734375
0.5046875
0.375
0.3796875
0.375
0.5015625
0.375
0.625
0.62890625
0.75234375
0.625
0.62890625
0.625
0.6328125
0.75703125
0.63671875
0.875
0.8859375
1.009375
0.88046875
0.89140625
0.875
1.003125
0.875
0.88046875
0.75703125
0.89140625
1.009375
0.875
0.8859375
0.77109375
0.9078125
1.028125
0.9078125
0.6484375
0.63671875
0.6484375
0.625
0.6328125
0.5078125
0.64453125
0.76171875
0.625
0.63671875
0.5234375
0.6640625
0.78515625
0.66015625
0.9296875
1.046875
0.90234375
0.92421875
1.015625
0.875
0.89140625
0.76640625
0.91328125
1.021875
0.875
0.896875
0.79921875
0.9515625
1.065625
0.940625
0.5328125
0.6796875
0.65234375
0.671875
0.5109375
0.625
0.640625
0.38203125
0.25546875
0.39140625
0.375
0.384375
0.12734375
0
0.13046875
0.125
0.128125
0
0.12890625
0.25390625
0.125
0.38671875
0.375
0.26171875
0.3984375
0.39609375
0
0.1328125
0.13203125
0
0.1359375
0.26640625
0.134375
0.4078125
0.403125
0.41015625
0.27734375
0.42421875
0.5546875
0.421875
0.13671875
0
0.14140625
0.140625
0.1328125
0
0.13671875
0.26953125
0.3984375
0.41015625
0.5390625
0.4078125
0.27734375
0.421875
0.5546875
0.42421875
0.1359375
0
0.140625
0.14140625
0
0.146875
0.28828125
0.146875
0.440625
0.5765625
0.440625
0.70703125
0.734375
0.86484375
0.70703125
0.734375
0.68359375
0.83203125
0.703125
0.95703125
0.98984375
1.109375
0.984375
0.98984375
1.028125
1.153125
1.028125
0.9515625
0.83203125
0.984375
1.109375
0.95703125
0.9296875
0.80859375
1.078125
0.6640625
0.68359375
0.6796875
0.703125
0.65234375
0.5328125
0.671875
0.79921875
0.66015625
0.64453125
0.5234375
0.78515625
0.90234375
0.92421875
1.046875
0.91328125
0.940625
1.065625
0.875
0.76640625
0.896875
1.021875
0.89140625
0.875
0.76171875
1.015625
0.625
0.5078125
0.63671875
0.625
0.5109375
0.640625
0.375
0.25546875
0.384375
0.38203125
0.39140625
0.26640625
0.403125
0.39609375
0.38671875
0.26171875
0.375
0.25390625
0.125
0
0.12734375
0.12890625
0
0.13203125
0.13046875
0
0.134375
0.125
0
0.128125
0.125390625
0.126171875
0.128515625
0.126171875
0.378515625
0.385546875
0.378515625
0.376171875
0.626953125
0.630859375
0.883203125
0.877734375
0.883203125
0.899609375
0.642578125
0.630859375
0.634765625
0.654296875
0.916015625
0.888671875
0.894140625
0.9324218750000001
0.666015625
0.638671875
0.383203125
0.127734375
0.126953125
0.380859375
0.392578125
0.130859375
0.133203125
0.399609375
0.416015625
0.138671875
0.134765625
0.404296875
0.416015625
0.138671875
0.144140625
0.432421875
0.720703125
0.693359375
0.970703125
1.008984375
0.970703125
0.943359375
0.673828125
0.693359375
0.666015625
0.654296875
0.916015625
0.932421875
0.894140625
0.888671875
0.634765625
0.638671875
0.383203125
0.399609375
0.392578125
0.380859375
0.126953125
0.130859375
0.133203125
0.127734375
0
0
0
0
0
0
0
0
0
0
0
0
0
0
0
0
0
0
0
0
0
0
0
0
0
0.25
0.25
0.25
0.25
0.25
0.25
0.253125
0.25625
0.259375
0.2625
0.25
0.25625
0.2625
0.26875
0.275
0.25
0.259375
0.26875
0.278125
0.2875
0.25
0.2625
0.275
0.2875
0.3
0.5
0.5
0.5
0.5
0.5
0.5
0.50625
0.5125
0.51875
0.525
0.5
0.5125
0.525
0.5375
0.55
0.5
0.51875
0.5375
0.55625
0.575
0.5
0.525
0.55
0.575
0.6
0.75
0.75
0.75
0.75
0.75
0.75
0.759375
0.76875
0.778125
0.7875
0.75
0.76875
0.7875
0.80625
0.825
0.75
0.778125
0.80625
0.834375
0.8625
0.75
0.7875
0.825
0.8625
0.9
1
1
1
1
1
1
1.0125
1.025
1.0375
1.05
1
1.025
1.05
1.075
1.1
1
1.0375
1.075
1.1125
1.15
1
1.05
1.1
1.15
1.2
0
0
0
0
0.25
0.2515625
0.2515625
0.25
0.125
0.125
0.1265625
0.125
0.5
0.503125
0.503125
0.5
0.375
0.375
0.3796875
0.375
0.25
0.253125
0.2546875
0.5
0.50625
0.509375
0.375
0.384375
0
0
0
0.125
0.128125
0
0
0
0.259375
0.259375
0.2546875
0.13125
0.128125
0.51875
0.51875
0.509375
0.39375
0.384375
0.253125
0.25
0.50625
0.5
0.375
0
0
0.125
0
0
0
0.2578125
0.2546875
0.25
0.1296875
0.125
0
0
0.265625
0.2640625
0.134375
0
0
0
0.271875
0.26875
0.2609375
0.1375
0.13125
0
0
0.25625
0.25
0.125
0.509375
0.521875
0.5125
0.5
0.375
0.3890625
0.39375
0.375
0.528125
0.54375
0.5375
0.403125
0.4125
0.53125
0.515625
0.5
0.759375
0.7734375
0.7640625
0.75
0.625
0.640625
0.6484375
0.625
0.778125
0.796875
0.7921875
0.65625
0.671875
0.815625
0.80625
0.7828125
0.6875
0.65625
0.76875
0.75
0.625
1.01875
1.04375
1.025
1
0.875
0.9078125
0.91875
0.875
1.05625
1.0875
1.075
0.940625
0.9625
1.0375
1.0625
1.03125
0.896875
0.91875
1.0125
1
0.875
0.7546875
0.7640625
0.75
1.00625
1.01875
1
0.875
0.8859375
0.75
0.7546875
0.75
1
1.00625
1
0.875
0.875
0.625
0.625
0.6328125
0.625
0.7640625
0.778125
0.640625
0.75
0.759375
0.625
1
1.0125
1.01875
0.875
0.896875
1.0375
0.7734375
0.7921875
0.796875
1.03125
1.05625
1.0625
0.9078125
0.940625
0.75
0.7640625
1
1.01875
0.875
0.5
0.509375
0.515625
0.625
0.6484375
0.528125
0.53125
0.671875
0.521875
0.5375
0.54375
0.7828125
0.80625
0.815625
0.65625
0.6875
0.5
0.5125
0.75
0.76875
0.625
1
1.025
1.04375
0.875
0.91875
1.075
1.0875
0.9625
0.84375
0.8484375
0.8203125
1.125
1.13125
1.09375
1.00625
0.9734375000000001
0.8203125
1.09375
0.8484375000000001
0.84375
1.13125
1.125
1.00625
0.88125
0.88125
1.175
1.175
1.05
0.565625
0.5875
0.5875
0.565625
0.6953125
0.71875
0.75
0.71875
0.546875
0.5625
0.546875
0.5625
0.271875
0.28125
0.2828125
0.2734375
0.403125
0.4125
0.43125
0.4171875
0.265625
0.2734375
0.2828125
0.28125
0.43125
0.29375
0.29375
0.45
0
0
0
0
0.1390625
0.14375
0.15
0.14375
0
0
0
0
0.134375
0
0
0.1375
0
0
0
0.2609375
0.26875
0.2640625
0.1296875
0.13125
0.3890625
0.39375
0.2578125
0
0
0
0.25
0.2546875
0.125
0.375
0.25
0.25625
0.375
0
0
0.125
0
0.125
0.12578125
0.12578125
0.125
0.25078125
0.375
0.37734375
0.37734375
0.375
0.5015625
0.25234375
0.375
0.3796875
0.38203125
0.5046875
0
0.125
0.1265625
0.12734375
0
0.1296875
0.1296875
0.12734375
0.25703125
0.3890625
0.3890625
0.38203125
0.5140625
0.25234375
0.3796875
0.375
0.5046875
0
0.1265625
0.125
0
0.12890625
0.12734375
0.125
0.25390625
0
0.1328125
0.13203125
0.26171875
0
0.1359375
0.134375
0.13046875
0.26640625
0
0.128125
0.125
0.25546875
0.38203125
0.39140625
0.384375
0.375
0.5109375
0.39609375
0.4078125
0.403125
0.5328125
0.3984375
0.38671875
0.5234375
0.375
0.5078125
0.6328125
0.64453125
0.63671875
0.625
0.76171875
0.6484375
0.6640625
0.66015625
0.78515625
0.6796875
0.671875
0.65234375
0.79921875
0.640625
0.625
0.76640625
0.89140625
0.91328125
0.896875
0.875
1.021875
0.92421875
0.9515625
0.940625
1.065625
0.9078125
0.9296875
0.90234375
1.046875
0.8859375
0.875
1.015625
0.75703125
0.88046875
0.89140625
0.875
1.009375
0.75234375
0.875
0.88046875
0.875
1.003125
0.625
0.62890625
0.62890625
0.625
0.63671875
0.625
0.63671875
0.6484375
0.77109375
0.625
0.6328125
0.75703125
0.875
0.8859375
0.89140625
1.009375
0.9078125
1.028125
0.78515625
0.90234375
0.92421875
0.9296875
1.046875
0.76171875
0.875
0.89140625
1.015625
0.5078125
0.625
0.63671875
0.64453125
0.5234375
0.66015625
0.6640625
0.5328125
0.65234375
0.671875
0.6796875
0.79921875
0.5109375
0.625
0.640625
0.76640625
0.875
0.896875
0.91328125
1.021875
0.940625
0.9515625
1.065625
0.83203125
0.984375
0.98984375
0.95703125
1.109375
0.80859375
0.95703125
1.078125
0.83203125
0.98984375
0.984375
1.109375
0.86484375
1.028125
1.028125
1.153125
0.5765625
0.70703125
0.734375
0.734375
0.70703125
0.5546875
0.68359375
0.703125
0.5390625
0.68359375
0.5546875
0.703125
0.27734375
0.4078125
0.421875
0.42421875
0.41015625
0.26953125
0.3984375
0.41015625
0.27734375
0.42421875
0.421875
0.28828125
0.440625
0.440625
0
0.14140625
0.146875
0.146875
0.14140625
0
0.13671875
0.140625
0
0.1328125
0.13671875
0
0.1359375
0.140625
0
0.13046875
0.134375
0.13203125
0.26640625
0.39140625
0.403125
0.39609375
0.26171875
0.38671875
0
0.12890625
0
0.125
0.12734375
0.25390625
0.375
0.38203125
0.25546875
0.375
0.384375
0
0.125
0.128125
0.125390625
0.376171875
0.378515625
0.126171875
0.128515625
0.385546875
0.378515625
0.126171875
0.126953125
0.130859375
0.133203125
0.127734375
0.383203125
0.399609375
0.392578125
0.380859375
0.634765625
0.654296875
0.666015625
0.638671875
0.894140625
0.9324218750000001
0.916015625
0.888671875
0.883203125
0.877734375
0.626953125
0.630859375
0.642578125
0.630859375
0.883203125
0.899609375
0.916015625
0.888671875
0.634765625
0.654296875
0.666015625
0.638671875
0.894140625
0.932421875
0.970703125
0.943359375
0.970703125
1.008984375
0.720703125
0.693359375
0.673828125
0.693359375
0.416015625
0.404296875
0.416015625
0.432421875
0.144140625
0.138671875
0.134765625
0.138671875
0.133203125
0.399609375
0.392578125
0.130859375
0.126953125
0.380859375
0.383203125
0.127734375
