MFEM NURBS mesh v1.0

#
# MFEM Geometry Types (see fem/geom.hpp):
#
# SEGMENT     = 1
# SQUARE      = 3
# CUBE        = 5
#

dimension
3

elements
20
1 5 4 5 13 12 7 6 14 15
1 5 0 1 9 8 4 5 13 12
1 5 1 2 10 9 5 6 14 13
1 5 3 7 15 11 2 6 14 10
1 5 0 4 12 8 3 7 15 11
1 5 12 13 21 20 15 14 22 23
1 5 8 9 17 16 12 13 21 20
1 5 9 10 18 17 13 14 22 21
1 5 11 15 23 19 10 14 22 18
1 5 8 12 20 16 11 15 23 19
1 5 20 21 29 28 23 22 30 31
1 5 16 17 25 24 20 21 29 28
1 5 17 18 26 25 21 22 30 29
1 5 19 23 31 27 18 22 30 26
1 5 16 20 28 24 19 23 31 27
1 5 28 29 5 4 31 30 6 7
1 5 24 25 1 0 28 29 5 4
1 5 25 26 2 1 29 30 6 5
1 5 27 31 7 3 26 30 6 2
1 5 24 28 4 0 27 31 7 3

boundary
16
1 3 8 9 1 0
1 3 11 3 2 10
1 3 9 10 2 1
1 3 8 0 3 11
1 3 16 17 9 8
1 3 19 11 10 18
1 3 17 18 10 9
1 3 16 8 11 19
1 3 24 25 17 16
1 3 27 19 18 26
1 3 25 26 18 17
1 3 24 16 19 27
1 3 0 1 25 24
1 3 3 27 26 2
1 3 1 2 26 25
1 3 0 24 27 3

edges
80
0 4 5
1 5 13
0 12 13
1 4 12
0 6 7
1 6 14
0 14 15
1 7 15
2 4 7
2 5 6
2 13 14
2 12 15
0 0 1
1 1 9
0 8 9
1 0 8
3 0 4
3 1 5
3 9 13
3 8 12
2 1 2
1 2 10
2 9 10
3 2 6
3 10 14
3 3 7
3 11 15
1 3 11
0 2 3
0 10 11
2 0 3
2 8 11
4 13 21
0 20 21
4 12 20
4 14 22
0 22 23
4 15 23
2 21 22
2 20 23
4 9 17
0 16 17
4 8 16
3 17 21
3 16 20
4 10 18
2 17 18
3 18 22
3 19 23
4 11 19
0 18 19
2 16 19
5 21 29
0 28 29
5 20 28
5 22 30
0 30 31
5 23 31
2 29 30
2 28 31
5 17 25
0 24 25
5 16 24
3 25 29
3 24 28
5 18 26
2 25 26
3 26 30
3 27 31
5 19 27
0 26 27
2 24 27
6 5 29
6 4 28
6 6 30
6 7 31
6 1 25
6 0 24
6 2 26
6 3 27

vertices
32

knotvectors
7
2 4 0 0 0 0.5 1 1 1
2 4 0 0 0 0.5 1 1 1
2 4 0 0 0 0.5 1 1 1
2 4 0 0 0 0.5 1 1 1
2 4 0 0 0 0.5 1 1 1
2 4 0 0 0 0.5 1 1 1
2 4 0 0 0 0.5 1 1 1

weights
1
1
1
1
1
1
1
1
1
1
1
1
1
1
1
1
1
1
1
1
1
1
1
1
1
1
1
1
1
1
1
1
1
1
0.8535533905932737
0.8535533905932737
1
1
0.8535533905932737
0.8535533905932737
1
1
0.8535533905932737
0.8535533905932737
1
1
0.8535533905932737
0.8535533905932737
1
1
1
1
1
1
1
1
0.8535533905932737
0.8535533905932737
0.8535533905932737
0.8535533905932737
0.8535533905932737
0.8535533905932737
0.8535533905932737
0.8535533905932737
1
1
1
1
1
1
1
1
0.8535533905932737
0.8535533905932737
0.8535533905932737
0.8535533905932737
0.8535533905932737
0.8535533905932737
1
1
1
1
1
1
1
1
0.8535533905932737
0.8535533905932737
0.8535533905932737
0.8535533905932737
0.8535533905932737
0.8535533905932737
0.8535533905932737
0.8535533905932737
0.8535533905932737
0.8535533905932737
0.8535533905932737
0.8535533905932737
1
1
0.8535533905932737
0.8535533905932737
0.8535533905932737
0.8535533905932737
1
1
0.8535533905932737
0.8535533905932737
1
1
1
1
0.8535533905932737
0.8535533905932737
0.8535533905932737
0.8535533905932737
0.8535533905932737
0.8535533905932737
1
1
1
1
0.8535533905932737
0.8535533905932737
0.8535533905932737
0.8535533905932737
1
1
1
1
0.8535533905932737
0.8535533905932737
0.8535533905932737
0.8535533905932737
0.8535533905932737
0.8535533905932737
0.8535533905932737
0.8535533905932737
1
1
0.8535533905932737
0.8535533905932737
0.8535533905932737
0.8535533905932737
1
1
0.8535533905932737
0.8535533905932737
1
1
1
1
0.8535533905932737
0.8535533905932737
0.8535533905932737
0.8535533905932737
0.8535533905932737
0.8535533905932737
1
1
1
1
0.8535533905932737
0.8535533905932737
0.8535533905932737
0.8535533905932737
1
1
1
1
0.8535533905932737
0.8535533905932737
0.8535533905932737
0.8535533905932737
0.8535533905932737
0.8535533905932737
0.8535533905932737
0.8535533905932737
0.8535533905932737
0.8535533905932737
0.8535533905932737
0.8535533905932737
0.8535533905932737
0.8535533905932737
0.8535533905932737
0.8535533905932737
0.8535533905932737
0.8535533905932737
0.8535533905932737
0.8535533905932737
0.8535533905932737
0.8535533905932737
0.8535533905932737
0.8535533905932737
0.8535533905932737
0.8535533905932737
1
1
1
1
0.8535533905932737
0.8535533905932737
0.8535533905932737
0.8535533905932737
1
1
1
1
0.8535533905932737
0.8535533905932737
0.8535533905932737
0.8535533905932737
0.8535533905932737
0.8535533905932737
0.8535533905932737
0.8535533905932737
0.7285533905932737
0.7285533905932737
0.7285533905932737
0.7285533905932737
0.8901650429449552
0.8901650429449552
0.9633883476483185
0.9633883476483185
0.8535533905932737
0.8535533905932737
0.8535533905932737
0.8535533905932737
0.8901650429449552
0.8901650429449552
0.9633883476483185
0.9633883476483185
0.8535533905932737
0.8535533905932737
0.8535533905932737
0.8535533905932737
0.7285533905932737
0.7285533905932737
0.7285533905932737
0.7285533905932737
0.8901650429449552
0.8901650429449552
0.9633883476483185
0.9633883476483185
0.8535533905932737
0.8535533905932737
0.8535533905932737
0.8535533905932737
0.8901650429449552
0.8901650429449552
0.9633883476483185
0.9633883476483185
0.8535533905932737
0.8535533905932737
0.8535533905932737
0.8535533905932737
0.8901650429449554
0.9633883476483185
0.8901650429449554
0.9633883476483185
0.9633883476483185
0.8901650429449554
0.9633883476483185
0.8901650429449554
0.7285533905932737
0.7285533905932737
0.7285533905932737
0.7285533905932737
0.8901650429449554
0.9633883476483185
0.8901650429449554
0.9633883476483185
0.9633883476483185
0.8901650429449554
0.9633883476483185
0.8901650429449554
0.7285533905932737
0.7285533905932737
0.7285533905932737
0.7285533905932737
0.8535533905932737
0.8535533905932737
0.8535533905932737
0.8535533905932737
0.8535533905932737
0.8535533905932737
0.8535533905932737
0.8535533905932737
1
1
1
1
0.8535533905932737
0.8535533905932737
0.8535533905932737
0.8535533905932737
0.8535533905932737
0.8535533905932737
0.8535533905932737
0.8535533905932737
0.7285533905932737
0.7285533905932737
0.7285533905932737
0.7285533905932737
0.8535533905932737
0.8535533905932737
0.8535533905932737
0.8535533905932737
0.8901650429449552
0.8901650429449552
0.9633883476483185
0.9633883476483185
0.8535533905932737
0.8535533905932737
0.8535533905932737
0.8535533905932737
0.7285533905932737
0.7285533905932737
0.7285533905932737
0.7285533905932737
0.8535533905932737
0.8535533905932737
0.8535533905932737
0.8535533905932737
0.8901650429449552
0.8901650429449552
0.9633883476483185
0.9633883476483185
0.8535533905932737
0.8535533905932737
0.8535533905932737
0.8535533905932737
0.9633883476483185
0.8901650429449554
0.9633883476483185
0.8901650429449554
0.7285533905932737
0.7285533905932737
0.7285533905932737
0.7285533905932737
0.9633883476483185
0.8901650429449554
0.9633883476483185
0.8901650429449554
0.7285533905932737
0.7285533905932737
0.7285533905932737
0.7285533905932737
0.8535533905932737
0.8535533905932737
0.8535533905932737
0.8535533905932737
0.8535533905932737
0.8535533905932737
0.8535533905932737
0.8535533905932737
1
1
1
1
0.8535533905932737
0.8535533905932737
0.8535533905932737
0.8535533905932737
0.8535533905932737
0.8535533905932737
0.8535533905932737
0.8535533905932737
0.7285533905932737
0.7285533905932737
0.7285533905932737
0.7285533905932737
0.8535533905932737
0.8535533905932737
0.8535533905932737
0.8535533905932737
0.8901650429449552
0.8901650429449552
0.9633883476483185
0.9633883476483185
0.8535533905932737
0.8535533905932737
0.8535533905932737
0.8535533905932737
0.7285533905932737
0.7285533905932737
0.7285533905932737
0.7285533905932737
0.8535533905932737
0.8535533905932737
0.8535533905932737
0.8535533905932737
0.8901650429449552
0.8901650429449552
0.9633883476483185
0.9633883476483185
0.8535533905932737
0.8535533905932737
0.8535533905932737
0.8535533905932737
0.9633883476483185
0.8901650429449554
0.9633883476483185
0.8901650429449554
0.7285533905932737
0.7285533905932737
0.7285533905932737
0.7285533905932737
0.9633883476483185
0.8901650429449554
0.9633883476483185
0.8901650429449554
0.7285533905932737
0.7285533905932737
0.7285533905932737
0.7285533905932737
0.8535533905932737
0.8535533905932737
0.8535533905932737
0.8535533905932737
0.8535533905932737
0.8535533905932737
0.8535533905932737
0.8535533905932737
0.8535533905932737
0.8535533905932737
0.8535533905932737
0.8535533905932737
0.8535533905932737
0.8535533905932737
0.8535533905932737
0.8535533905932737
0.7285533905932737
0.7285533905932737
0.7285533905932737
0.7285533905932737
0.8535533905932737
0.8535533905932737
0.8535533905932737
0.8535533905932737
0.8535533905932737
0.8535533905932737
0.8535533905932737
0.8535533905932737
0.7285533905932737
0.7285533905932737
0.7285533905932737
0.7285533905932737
0.8535533905932737
0.8535533905932737
0.8535533905932737
0.8535533905932737
0.8535533905932737
0.8535533905932737
0.8535533905932737
0.8535533905932737
0.7285533905932737
0.7285533905932737
0.7285533905932737
0.7285533905932737
0.7285533905932737
0.7285533905932737
0.7285533905932737
0.7285533905932737
0.8535533905932737
0.8535533905932737
0.8535533905932737
0.8535533905932737
0.8535533905932737
0.8535533905932737
0.8535533905932737
0.8535533905932737
0.7598033905932737
0.7598033905932737
0.7598033905932737
0.7598033905932737
0.8223033905932737
0.8223033905932737
0.8223033905932737
0.8223033905932737
0.7598033905932737
0.7598033905932737
0.7598033905932737
0.7598033905932737
0.8223033905932737
0.8223033905932737
0.8223033905932737
0.8223033905932737
0.7598033905932737
0.8223033905932737
0.7598033905932737
0.8223033905932737
0.7598033905932737
0.8223033905932737
0.7598033905932737
0.8223033905932737
0.7598033905932737
0.8223033905932737
0.7598033905932737
0.8223033905932737
0.7598033905932737
0.8223033905932737
0.7598033905932737
0.8223033905932737
0.8535533905932737
0.8535533905932737
0.8535533905932737
0.8535533905932737
0.8535533905932737
0.8535533905932737
0.8535533905932737
0.8535533905932737
0.7598033905932737
0.7598033905932737
0.7598033905932737
0.7598033905932737
0.8223033905932737
0.8223033905932737
0.8223033905932737
0.8223033905932737
0.7598033905932737
0.7598033905932737
0.7598033905932737
0.7598033905932737
0.8223033905932737
0.8223033905932737
0.8223033905932737
0.8223033905932737
0.7598033905932737
0.8223033905932737
0.7598033905932737
0.8223033905932737
0.7598033905932737
0.8223033905932737
0.7598033905932737
0.8223033905932737
0.7598033905932737
0.8223033905932737
0.7598033905932737
0.8223033905932737
0.7598033905932737
0.8223033905932737
0.7598033905932737
0.8223033905932737
0.8535533905932737
0.8535533905932737
0.8535533905932737
0.8535533905932737
0.8535533905932737
0.8535533905932737
0.8535533905932737
0.8535533905932737
0.7598033905932737
0.7598033905932737
0.7598033905932737
0.7598033905932737
0.8223033905932737
0.8223033905932737
0.8223033905932737
0.8223033905932737
0.7598033905932737
0.7598033905932737
0.7598033905932737
0.7598033905932737
0.8223033905932737
0.8223033905932737
0.8223033905932737
0.8223033905932737
0.7598033905932737
0.8223033905932737
0.7598033905932737
0.8223033905932737
0.7598033905932737
0.8223033905932737
0.7598033905932737
0.8223033905932737
0.7598033905932737
0.8223033905932737
0.7598033905932737
0.8223033905932737
0.7598033905932737
0.8223033905932737
0.7598033905932737
0.8223033905932737
0.8535533905932737
0.8535533905932737
0.8535533905932737
0.8535533905932737
0.8535533905932737
0.8535533905932737
0.8535533905932737
0.8535533905932737
0.7598033905932737
0.7598033905932737
0.7598033905932737
0.7598033905932737
0.8223033905932737
0.8223033905932737
0.8223033905932737
0.8223033905932737
0.7598033905932737
0.7598033905932737
0.7598033905932737
0.7598033905932737
0.8223033905932737
0.8223033905932737
0.8223033905932737
0.8223033905932737
0.7598033905932737
0.8223033905932737
0.7598033905932737
0.8223033905932737
0.7598033905932737
0.8223033905932737
0.7598033905932737
0.8223033905932737
0.7598033905932737
0.8223033905932737
0.7598033905932737
0.8223033905932737
0.7598033905932737
0.8223033905932737
0.7598033905932737
0.8223033905932737

FiniteElementSpace
FiniteElementCollection: NURBS2
VDim: 3
Ordering: 1

1.292893218813453 -2.37500631308882e-16 -0.7071067811865475
2.707106781186547 -4.972874481795299e-16 -0.7071067811865475
2.707106781186547 -4.972874481795299e-16 0.7071067811865475
1.292893218813453 -2.37500631308882e-16 0.7071067811865475
1.646446609406726 -3.024473355265439e-16 -0.3535533905932737
2.353553390593274 -4.32340743961868e-16 -0.3535533905932737
2.353553390593274 -4.32340743961868e-16 0.3535533905932737
1.646446609406726 -3.024473355265439e-16 0.3535533905932737
7.916687710296066e-17 1.292893218813453 -0.7071067811865475
1.6576248272651e-16 2.707106781186547 -0.7071067811865475
1.6576248272651e-16 2.707106781186547 0.7071067811865475
7.916687710296066e-17 1.292893218813453 0.7071067811865475
1.00815778508848e-16 1.646446609406726 -0.3535533905932737
1.441135813206227e-16 2.353553390593274 -0.3535533905932737
1.441135813206227e-16 2.353553390593274 0.3535533905932737
1.00815778508848e-16 1.646446609406726 0.3535533905932737
-1.292893218813453 1.583337542059213e-16 -0.7071067811865475
-2.707106781186547 3.315249654530199e-16 -0.7071067811865475
-2.707106781186547 3.315249654530199e-16 0.7071067811865475
-1.292893218813453 1.583337542059213e-16 0.7071067811865475
-1.646446609406726 2.01631557017696e-16 -0.3535533905932737
-2.353553390593274 2.882271626412453e-16 -0.3535533905932737
-2.353553390593274 2.882271626412453e-16 0.3535533905932737
-1.646446609406726 2.01631557017696e-16 0.3535533905932737
-2.37500631308882e-16 -1.292893218813453 -0.7071067811865475
-4.972874481795299e-16 -2.707106781186547 -0.7071067811865475
-4.972874481795299e-16 -2.707106781186547 0.7071067811865475
-2.37500631308882e-16 -1.292893218813453 0.7071067811865475
-3.024473355265439e-16 -1.646446609406726 -0.3535533905932737
-4.32340743961868e-16 -2.353553390593274 -0.3535533905932737
-4.32340743961868e-16 -2.353553390593274 0.3535533905932737
-3.024473355265439e-16 -1.646446609406726 0.3535533905932737
1.823223304703363 -3.349206876353749e-16 -0.3535533905932737
2.176776695296637 -3.998673918530369e-16 -0.3535533905932737
2.353553390593274 0.9748737341529161 -0.3535533905932737
0.9748737341529166 2.353553390593274 -0.3535533905932737
1.116402292117916e-16 1.823223304703363 -0.3535533905932737
1.33289130617679e-16 2.176776695296637 -0.3535533905932737
1.646446609406726 0.6819805153394637 -0.3535533905932737
0.6819805153394638 1.646446609406726 -0.3535533905932737
2.176776695296637 -3.998673918530369e-16 0.3535533905932737
1.823223304703363 -3.349206876353749e-16 0.3535533905932737
2.353553390593274 0.9748737341529161 0.3535533905932737
0.9748737341529166 2.353553390593274 0.3535533905932737
1.33289130617679e-16 2.176776695296637 0.3535533905932737
1.116402292117916e-16 1.823223304703363 0.3535533905932737
1.646446609406726 0.6819805153394637 0.3535533905932737
0.6819805153394638 1.646446609406726 0.3535533905932737
1.646446609406726 -3.024473355265439e-16 -0.1767766952966369
1.646446609406726 -3.024473355265439e-16 0.1767766952966369
2.353553390593274 -4.32340743961868e-16 -0.1767766952966369
2.353553390593274 -4.32340743961868e-16 0.1767766952966369
1.441135813206227e-16 2.353553390593274 -0.1767766952966369
1.441135813206227e-16 2.353553390593274 0.1767766952966369
1.00815778508848e-16 1.646446609406726 -0.1767766952966369
1.00815778508848e-16 1.646446609406726 0.1767766952966369
1.585786437626905 -2.913042427456609e-16 -0.9999999999999999
2.414213562373095 -4.434838367427509e-16 -0.9999999999999999
2.707106781186547 1.121320343559642 -0.7071067811865475
1.121320343559643 2.707106781186547 -0.7071067811865475
9.710141424855365e-17 1.585786437626905 -0.9999999999999999
1.47827945580917e-16 2.414213562373095 -0.9999999999999999
1.292893218813453 0.5355339059327375 -0.7071067811865475
0.5355339059327378 1.292893218813453 -0.7071067811865475
1.381281566461771 -2.537373073632975e-16 -0.618718433538229
1.558058261758408 -2.862106594721284e-16 -0.4419417382415922
2.618718433538229 -4.810507721251143e-16 -0.618718433538229
2.441941738241592 -4.485774200162834e-16 -0.4419417382415922
1.603502573750381e-16 2.618718433538229 -0.618718433538229
1.495258066720945e-16 2.441941738241592 -0.4419417382415922
8.45791024544325e-17 1.381281566461771 -0.618718433538229
9.540355315737615e-17 1.558058261758408 -0.4419417382415922
3 -5.510910596163089e-16 -0.414213562373095
3 -5.510910596163089e-16 0.414213562373095
2.707106781186547 1.121320343559642 0.7071067811865475
1.121320343559643 2.707106781186547 0.7071067811865475
1.83697019872103e-16 3 -0.414213562373095
1.83697019872103e-16 3 0.414213562373095
2.618718433538229 -4.810507721251143e-16 0.618718433538229
2.441941738241592 -4.485774200162834e-16 0.4419417382415922
1.603502573750381e-16 2.618718433538229 0.618718433538229
1.495258066720945e-16 2.441941738241592 0.4419417382415922
1.381281566461771 -2.537373073632975e-16 0.618718433538229
1.558058261758408 -2.862106594721284e-16 0.4419417382415922
8.45791024544325e-17 1.381281566461771 0.618718433538229
9.540355315737615e-17 1.558058261758408 0.4419417382415922
1.292893218813453 0.5355339059327375 0.7071067811865475
0.5355339059327378 1.292893218813453 0.7071067811865475
2.414213562373095 -4.434838367427509e-16 0.9999999999999999
1.585786437626905 -2.913042427456609e-16 0.9999999999999999
1.47827945580917e-16 2.414213562373095 0.9999999999999999
9.710141424855365e-17 1.585786437626905 0.9999999999999999
1 -1.83697019872103e-16 -0.414213562373095
1 -1.83697019872103e-16 0.414213562373095
6.123233995736767e-17 1 -0.414213562373095
6.123233995736767e-17 1 0.414213562373095
-0.9748737341529163 2.353553390593274 -0.3535533905932737
-2.353553390593274 0.9748737341529166 -0.3535533905932737
-1.823223304703363 2.232804584235833e-16 -0.3535533905932737
-2.176776695296637 2.66578261235358e-16 -0.3535533905932737
-0.6819805153394638 1.646446609406726 -0.3535533905932737
-1.646446609406726 0.6819805153394639 -0.3535533905932737
-0.9748737341529163 2.353553390593274 0.3535533905932737
-2.353553390593274 0.9748737341529166 0.3535533905932737
-2.176776695296637 2.66578261235358e-16 0.3535533905932737
-1.823223304703363 2.232804584235833e-16 0.3535533905932737
-0.6819805153394638 1.646446609406726 0.3535533905932737
-1.646446609406726 0.6819805153394639 0.3535533905932737
-2.353553390593274 2.882271626412453e-16 -0.1767766952966369
-2.353553390593274 2.882271626412453e-16 0.1767766952966369
-1.646446609406726 2.01631557017696e-16 -0.1767766952966369
-1.646446609406726 2.01631557017696e-16 0.1767766952966369
-1.121320343559642 2.707106781186547 -0.7071067811865475
-2.707106781186547 1.121320343559643 -0.7071067811865475
-1.585786437626905 1.942028284971073e-16 -0.9999999999999999
-2.414213562373095 2.95655891161834e-16 -0.9999999999999999
-0.5355339059327375 1.292893218813453 -0.7071067811865475
-1.292893218813453 0.5355339059327378 -0.7071067811865475
-2.618718433538229 3.207005147500763e-16 -0.618718433538229
-2.441941738241592 2.99051613344189e-16 -0.4419417382415922
-1.381281566461771 1.69158204908865e-16 -0.618718433538229
-1.558058261758408 1.908071063147523e-16 -0.4419417382415922
-1.121320343559642 2.707106781186547 0.7071067811865475
-2.707106781186547 1.121320343559643 0.7071067811865475
-3 3.673940397442059e-16 -0.414213562373095
-3 3.673940397442059e-16 0.414213562373095
-2.618718433538229 3.207005147500763e-16 0.618718433538229
-2.441941738241592 2.99051613344189e-16 0.4419417382415922
-1.381281566461771 1.69158204908865e-16 0.618718433538229
-1.558058261758408 1.908071063147523e-16 0.4419417382415922
-0.5355339059327375 1.292893218813453 0.7071067811865475
-1.292893218813453 0.5355339059327378 0.7071067811865475
-2.414213562373095 2.95655891161834e-16 0.9999999999999999
-1.585786437626905 1.942028284971073e-16 0.9999999999999999
-1 1.224646799147353e-16 -0.414213562373095
-1 1.224646799147353e-16 0.414213562373095
-2.353553390593274 -0.974873734152916 -0.3535533905932737
-0.9748737341529168 -2.353553390593274 -0.3535533905932737
-3.349206876353749e-16 -1.823223304703363 -0.3535533905932737
-3.998673918530369e-16 -2.176776695296637 -0.3535533905932737
-1.646446609406726 -0.6819805153394636 -0.3535533905932737
-0.681980515339464 -1.646446609406726 -0.3535533905932737
-2.353553390593274 -0.974873734152916 0.3535533905932737
-0.9748737341529168 -2.353553390593274 0.3535533905932737
-3.998673918530369e-16 -2.176776695296637 0.3535533905932737
-3.349206876353749e-16 -1.823223304703363 0.3535533905932737
-1.646446609406726 -0.6819805153394636 0.3535533905932737
-0.681980515339464 -1.646446609406726 0.3535533905932737
-4.32340743961868e-16 -2.353553390593274 -0.1767766952966369
-4.32340743961868e-16 -2.353553390593274 0.1767766952966369
-3.024473355265439e-16 -1.646446609406726 -0.1767766952966369
-3.024473355265439e-16 -1.646446609406726 0.1767766952966369
-2.707106781186548 -1.121320343559642 -0.7071067811865475
-1.121320343559643 -2.707106781186547 -0.7071067811865475
-2.913042427456609e-16 -1.585786437626905 -0.9999999999999999
-4.434838367427509e-16 -2.414213562373095 -0.9999999999999999
-1.292893218813453 -0.5355339059327374 -0.7071067811865475
-0.5355339059327379 -1.292893218813453 -0.7071067811865475
-4.810507721251143e-16 -2.618718433538229 -0.618718433538229
-4.485774200162834e-16 -2.441941738241592 -0.4419417382415922
-2.537373073632975e-16 -1.381281566461771 -0.618718433538229
-2.862106594721284e-16 -1.558058261758408 -0.4419417382415922
-2.707106781186548 -1.121320343559642 0.7071067811865475
-1.121320343559643 -2.707106781186547 0.7071067811865475
-5.510910596163089e-16 -3 -0.414213562373095
-5.510910596163089e-16 -3 0.414213562373095
-4.810507721251143e-16 -2.618718433538229 0.618718433538229
-4.485774200162834e-16 -2.441941738241592 0.4419417382415922
-2.537373073632975e-16 -1.381281566461771 0.618718433538229
-2.862106594721284e-16 -1.558058261758408 0.4419417382415922
-1.292893218813453 -0.5355339059327374 0.7071067811865475
-0.5355339059327379 -1.292893218813453 0.7071067811865475
-4.434838367427509e-16 -2.414213562373095 0.9999999999999999
-2.913042427456609e-16 -1.585786437626905 0.9999999999999999
-1.83697019872103e-16 -1 -0.414213562373095
-1.83697019872103e-16 -1 0.414213562373095
2.353553390593274 -0.9748737341529168 -0.3535533905932737
0.9748737341529159 -2.353553390593274 -0.3535533905932737
1.646446609406726 -0.681980515339464 -0.3535533905932737
0.6819805153394636 -1.646446609406726 -0.3535533905932737
2.353553390593274 -0.9748737341529168 0.3535533905932737
0.9748737341529159 -2.353553390593274 0.3535533905932737
1.646446609406726 -0.681980515339464 0.3535533905932737
0.6819805153394636 -1.646446609406726 0.3535533905932737
2.707106781186547 -1.121320343559643 -0.7071067811865475
1.121320343559642 -2.707106781186548 -0.7071067811865475
1.292893218813453 -0.5355339059327379 -0.7071067811865475
0.5355339059327374 -1.292893218813453 -0.7071067811865475
2.707106781186547 -1.121320343559643 0.7071067811865475
1.121320343559642 -2.707106781186548 0.7071067811865475
1.292893218813453 -0.5355339059327379 0.7071067811865475
0.5355339059327374 -1.292893218813453 0.7071067811865475
0.755203820042827 1.823223304703363 -0.3535533905932737
0.9016504294495533 2.176776695296637 -0.3535533905932737
1.823223304703363 0.7552038200428267 -0.3535533905932737
2.176776695296637 0.9016504294495529 -0.3535533905932737
1.823223304703363 -3.349206876353749e-16 -0.1767766952966369
2.176776695296637 -3.998673918530369e-16 -0.1767766952966369
1.823223304703363 -3.349206876353749e-16 0.1767766952966369
2.176776695296637 -3.998673918530369e-16 0.1767766952966369
2.353553390593274 0.9748737341529161 -0.1767766952966369
0.9748737341529166 2.353553390593274 -0.1767766952966369
2.353553390593274 0.9748737341529161 0.1767766952966369
0.9748737341529166 2.353553390593274 0.1767766952966369
1.33289130617679e-16 2.176776695296637 -0.1767766952966369
1.116402292117916e-16 1.823223304703363 -0.1767766952966369
1.33289130617679e-16 2.176776695296637 0.1767766952966369
1.116402292117916e-16 1.823223304703363 0.1767766952966369
0.6819805153394638 1.646446609406726 -0.1767766952966369
1.646446609406726 0.6819805153394637 -0.1767766952966369
0.6819805153394638 1.646446609406726 0.1767766952966369
1.646446609406726 0.6819805153394637 0.1767766952966369
1.823223304703363 0.7552038200428267 0.3535533905932737
2.176776695296637 0.9016504294495529 0.3535533905932737
0.755203820042827 1.823223304703363 0.3535533905932737
0.9016504294495533 2.176776695296637 0.3535533905932737
0.6568542494923802 1.585786437626905 -0.9999999999999999
1 2.414213562373095 -0.9999999999999999
1.585786437626905 0.65685424949238 -0.9999999999999999
2.414213562373095 0.9999999999999997 -0.9999999999999999
1.652469820938313 -3.035537815349558e-16 -0.8402595195773874
2.347530179061687 -4.312342979534561e-16 -0.8402595195773874
1.770631573798668 -3.252597433982669e-16 -0.5168939945610538
2.229368426201332 -4.095283360901449e-16 -0.5168939945610538
2.618718433538229 1.084708691207961 -0.6187184335382289
1.084708691207961 2.618718433538229 -0.6187184335382289
2.441941738241592 1.011485386504598 -0.4419417382415922
1.011485386504598 2.441941738241592 -0.4419417382415922
1.437447659844854e-16 2.347530179061687 -0.8402595195773874
1.011845938449853e-16 1.652469820938313 -0.8402595195773874
1.365094453633817e-16 2.229368426201332 -0.5168939945610538
1.08419914466089e-16 1.770631573798668 -0.5168939945610538
0.5721455582844193 1.381281566461771 -0.6187184335382289
1.381281566461771 0.572145558284419 -0.6187184335382289
0.6453688629877823 1.558058261758408 -0.4419417382415922
1.558058261758408 0.6453688629877821 -0.4419417382415922
1.242640687119285 3 -0.414213562373095
1.242640687119285 3 0.414213562373095
3 1.242640687119285 -0.414213562373095
3 1.242640687119285 0.414213562373095
2.840259519577387 -5.21747209409737e-16 -0.3475301790616869
2.840259519577387 -5.21747209409737e-16 0.3475301790616869
2.516893994561054 -4.623459261348585e-16 -0.2293684262013315
2.516893994561054 -4.623459261348585e-16 0.2293684262013315
2.618718433538229 1.084708691207961 0.6187184335382289
1.084708691207961 2.618718433538229 0.6187184335382289
2.441941738241592 1.011485386504598 0.4419417382415922
1.011485386504598 2.441941738241592 0.4419417382415922
1.739157364699123e-16 2.840259519577387 0.3475301790616869
1.739157364699123e-16 2.840259519577387 -0.3475301790616869
1.541153087116195e-16 2.516893994561054 0.2293684262013315
1.541153087116195e-16 2.516893994561054 -0.2293684262013315
0.5721455582844193 1.381281566461771 0.6187184335382289
0.6453688629877823 1.558058261758408 0.4419417382415922
1.381281566461771 0.572145558284419 0.6187184335382289
1.558058261758408 0.6453688629877821 0.4419417382415922
1.652469820938313 -3.035537815349557e-16 0.8402595195773873
1.770631573798668 -3.252597433982669e-16 0.5168939945610538
2.347530179061687 -4.312342979534562e-16 0.8402595195773873
2.229368426201332 -4.095283360901449e-16 0.5168939945610538
1.08419914466089e-16 1.770631573798668 0.5168939945610538
1.011845938449852e-16 1.652469820938313 0.8402595195773873
1.365094453633817e-16 2.229368426201332 0.5168939945610538
1.437447659844854e-16 2.347530179061687 0.8402595195773873
0.6568542494923802 1.585786437626905 0.9999999999999999
1.585786437626905 0.65685424949238 0.9999999999999999
1 2.414213562373095 0.9999999999999999
2.414213562373095 0.9999999999999997 0.9999999999999999
1.159740480422613 -2.130408700786749e-16 -0.3475301790616868
1.483106005438946 -2.724421533535534e-16 -0.2293684262013315
1.159740480422613 -2.130408700786749e-16 0.3475301790616868
1.483106005438946 -2.724421533535534e-16 0.2293684262013315
9.081405111785113e-17 1.483106005438946 -0.2293684262013315
7.101362335955831e-17 1.159740480422613 -0.3475301790616868
9.081405111785113e-17 1.483106005438946 0.2293684262013315
7.101362335955831e-17 1.159740480422613 0.3475301790616868
0.414213562373095 1 -0.414213562373095
1 0.414213562373095 -0.414213562373095
0.414213562373095 1 0.414213562373095
1 0.414213562373095 0.414213562373095
-1.823223304703363 0.755203820042827 -0.3535533905932737
-2.176776695296637 0.9016504294495533 -0.3535533905932737
-0.7552038200428268 1.823223304703363 -0.3535533905932737
-0.9016504294495531 2.176776695296637 -0.3535533905932737
-0.9748737341529163 2.353553390593274 -0.1767766952966369
-2.353553390593274 0.9748737341529166 -0.1767766952966369
-0.9748737341529163 2.353553390593274 0.1767766952966369
-2.353553390593274 0.9748737341529166 0.1767766952966369
-2.176776695296637 2.66578261235358e-16 -0.1767766952966369
-1.823223304703363 2.232804584235833e-16 -0.1767766952966369
-2.176776695296637 2.66578261235358e-16 0.1767766952966369
-1.823223304703363 2.232804584235833e-16 0.1767766952966369
-1.646446609406726 0.6819805153394639 -0.1767766952966369
-0.6819805153394638 1.646446609406726 -0.1767766952966369
-1.646446609406726 0.6819805153394639 0.1767766952966369
-0.6819805153394638 1.646446609406726 0.1767766952966369
-0.7552038200428268 1.823223304703363 0.3535533905932737
-0.9016504294495531 2.176776695296637 0.3535533905932737
-1.823223304703363 0.755203820042827 0.3535533905932737
-2.176776695296637 0.9016504294495533 0.3535533905932737
-1.585786437626905 0.6568542494923802 -0.9999999999999999
-2.414213562373095 1 -0.9999999999999999
-0.6568542494923801 1.585786437626905 -0.9999999999999999
-0.9999999999999999 2.414213562373095 -0.9999999999999999
-1.084708691207961 2.618718433538229 -0.6187184335382289
-2.618718433538229 1.084708691207961 -0.6187184335382289
-1.011485386504598 2.441941738241592 -0.4419417382415922
-2.441941738241592 1.011485386504598 -0.4419417382415922
-2.347530179061687 2.874895319689707e-16 -0.8402595195773874
-1.652469820938313 2.023691876899705e-16 -0.8402595195773874
-2.229368426201332 2.730188907267633e-16 -0.5168939945610538
-1.770631573798668 2.16839828932178e-16 -0.5168939945610538
-1.381281566461771 0.5721455582844194 -0.6187184335382289
-0.5721455582844192 1.381281566461771 -0.6187184335382289
-1.558058261758408 0.6453688629877824 -0.4419417382415922
-0.6453688629877823 1.558058261758408 -0.4419417382415922
-3 1.242640687119285 -0.414213562373095
-3 1.242640687119285 0.414213562373095
-1.242640687119285 3 -0.414213562373095
-1.242640687119285 3 0.414213562373095
-1.084708691207961 2.618718433538229 0.6187184335382289
-2.618718433538229 1.084708691207961 0.6187184335382289
-1.011485386504598 2.441941738241592 0.4419417382415922
-2.441941738241592 1.011485386504598 0.4419417382415922
-2.840259519577387 3.478314729398247e-16 0.3475301790616869
-2.840259519577387 3.478314729398247e-16 -0.3475301790616869
-2.516893994561054 3.08230617423239e-16 0.2293684262013315
-2.516893994561054 3.08230617423239e-16 -0.2293684262013315
-1.381281566461771 0.5721455582844194 0.6187184335382289
-1.558058261758408 0.6453688629877824 0.4419417382415922
-0.5721455582844192 1.381281566461771 0.6187184335382289
-0.6453688629877823 1.558058261758408 0.4419417382415922
-1.770631573798668 2.16839828932178e-16 0.5168939945610538
-1.652469820938313 2.023691876899705e-16 0.8402595195773873
-2.229368426201332 2.730188907267633e-16 0.5168939945610538
-2.347530179061687 2.874895319689708e-16 0.8402595195773873
-1.585786437626905 0.6568542494923802 0.9999999999999999
-0.6568542494923801 1.585786437626905 0.9999999999999999
-2.414213562373095 1 0.9999999999999999
-0.9999999999999999 2.414213562373095 0.9999999999999999
-1.483106005438946 1.816281022357023e-16 -0.2293684262013315
-1.159740480422613 1.420272467191166e-16 -0.3475301790616868
-1.483106005438946 1.816281022357023e-16 0.2293684262013315
-1.159740480422613 1.420272467191166e-16 0.3475301790616868
-1 0.4142135623730951 -0.414213562373095
-0.414213562373095 1 -0.414213562373095
-1 0.4142135623730951 0.414213562373095
-0.414213562373095 1 0.414213562373095
-0.7552038200428274 -1.823223304703363 -0.3535533905932737
-0.9016504294495536 -2.176776695296637 -0.3535533905932737
-1.823223304703363 -0.7552038200428267 -0.3535533905932737
-2.176776695296637 -0.9016504294495529 -0.3535533905932737
-2.353553390593274 -0.974873734152916 -0.1767766952966369
-0.9748737341529168 -2.353553390593274 -0.1767766952966369
-2.353553390593274 -0.974873734152916 0.1767766952966369
-0.9748737341529168 -2.353553390593274 0.1767766952966369
-3.998673918530369e-16 -2.176776695296637 -0.1767766952966369
-3.349206876353749e-16 -1.823223304703363 -0.1767766952966369
-3.998673918530369e-16 -2.176776695296637 0.1767766952966369
-3.349206876353749e-16 -1.823223304703363 0.1767766952966369
-0.681980515339464 -1.646446609406726 -0.1767766952966369
-1.646446609406726 -0.6819805153394636 -0.1767766952966369
-0.681980515339464 -1.646446609406726 0.1767766952966369
-1.646446609406726 -0.6819805153394636 0.1767766952966369
-1.823223304703363 -0.7552038200428267 0.3535533905932737
-2.176776695296637 -0.9016504294495529 0.3535533905932737
-0.7552038200428274 -1.823223304703363 0.3535533905932737
-0.9016504294495536 -2.176776695296637 0.3535533905932737
-0.6568542494923804 -1.585786437626905 -0.9999999999999999
-1 -2.414213562373094 -0.9999999999999999
-1.585786437626905 -0.6568542494923799 -0.9999999999999999
-2.414213562373095 -0.9999999999999996 -0.9999999999999999
-2.618718433538229 -1.08470869120796 -0.6187184335382289
-1.084708691207961 -2.618718433538228 -0.6187184335382289
-2.441941738241592 -1.011485386504598 -0.4419417382415922
-1.011485386504598 -2.441941738241592 -0.4419417382415922
-4.312342979534561e-16 -2.347530179061687 -0.8402595195773874
-3.035537815349558e-16 -1.652469820938313 -0.8402595195773874
-4.095283360901449e-16 -2.229368426201332 -0.5168939945610538
-3.252597433982669e-16 -1.770631573798668 -0.5168939945610538
-0.5721455582844194 -1.381281566461771 -0.6187184335382289
-1.381281566461771 -0.572145558284419 -0.6187184335382289
-0.6453688629877825 -1.558058261758408 -0.4419417382415922
-1.558058261758408 -0.645368862987782 -0.4419417382415922
-1.242640687119285 -3 -0.414213562373095
-1.242640687119285 -3 0.414213562373095
-3 -1.242640687119285 -0.414213562373095
-3 -1.242640687119285 0.414213562373095
-2.618718433538229 -1.08470869120796 0.6187184335382289
-1.084708691207961 -2.618718433538228 0.6187184335382289
-2.441941738241592 -1.011485386504598 0.4419417382415922
-1.011485386504598 -2.441941738241592 0.4419417382415922
-5.21747209409737e-16 -2.840259519577387 0.3475301790616869
-5.21747209409737e-16 -2.840259519577387 -0.3475301790616869
-4.623459261348585e-16 -2.516893994561054 0.2293684262013315
-4.623459261348585e-16 -2.516893994561054 -0.2293684262013315
-0.5721455582844194 -1.381281566461771 0.6187184335382289
-0.6453688629877825 -1.558058261758408 0.4419417382415922
-1.381281566461771 -0.572145558284419 0.6187184335382289
-1.558058261758408 -0.645368862987782 0.4419417382415922
-3.252597433982669e-16 -1.770631573798668 0.5168939945610538
-3.035537815349557e-16 -1.652469820938313 0.8402595195773873
-4.095283360901449e-16 -2.229368426201332 0.5168939945610538
-4.312342979534562e-16 -2.347530179061687 0.8402595195773873
-0.6568542494923804 -1.585786437626905 0.9999999999999999
-1.585786437626905 -0.6568542494923799 0.9999999999999999
-1 -2.414213562373094 0.9999999999999999
-2.414213562373095 -0.9999999999999996 0.9999999999999999
-2.724421533535534e-16 -1.483106005438946 -0.2293684262013315
-2.130408700786749e-16 -1.159740480422613 -0.3475301790616868
-2.724421533535534e-16 -1.483106005438946 0.2293684262013315
-2.130408700786749e-16 -1.159740480422613 0.3475301790616868
-0.4142135623730952 -1 -0.414213562373095
-1 -0.4142135623730949 -0.414213562373095
-0.4142135623730952 -1 0.414213562373095
-1 -0.4142135623730949 0.414213562373095
1.823223304703363 -0.7552038200428274 -0.3535533905932737
2.176776695296637 -0.9016504294495536 -0.3535533905932737
0.7552038200428265 -1.823223304703363 -0.3535533905932737
0.9016504294495528 -2.176776695296637 -0.3535533905932737
0.9748737341529159 -2.353553390593274 -0.1767766952966369
2.353553390593274 -0.9748737341529168 -0.1767766952966369
0.9748737341529159 -2.353553390593274 0.1767766952966369
2.353553390593274 -0.9748737341529168 0.1767766952966369
1.646446609406726 -0.681980515339464 -0.1767766952966369
0.6819805153394636 -1.646446609406726 -0.1767766952966369
1.646446609406726 -0.681980515339464 0.1767766952966369
0.6819805153394636 -1.646446609406726 0.1767766952966369
0.7552038200428265 -1.823223304703363 0.3535533905932737
0.9016504294495528 -2.176776695296637 0.3535533905932737
1.823223304703363 -0.7552038200428274 0.3535533905932737
2.176776695296637 -0.9016504294495536 0.3535533905932737
1.585786437626905 -0.6568542494923804 -0.9999999999999999
2.414213562373094 -1 -0.9999999999999999
0.6568542494923799 -1.585786437626905 -0.9999999999999999
0.9999999999999994 -2.414213562373095 -0.9999999999999999
1.08470869120796 -2.618718433538229 -0.6187184335382289
2.618718433538228 -1.084708691207961 -0.6187184335382289
1.011485386504597 -2.441941738241592 -0.4419417382415922
2.441941738241592 -1.011485386504598 -0.4419417382415922
1.381281566461771 -0.5721455582844194 -0.6187184335382289
0.572145558284419 -1.381281566461771 -0.6187184335382289
1.558058261758408 -0.6453688629877825 -0.4419417382415922
0.645368862987782 -1.558058261758408 -0.4419417382415922
3 -1.242640687119285 -0.414213562373095
3 -1.242640687119285 0.414213562373095
1.242640687119285 -3 -0.414213562373095
1.242640687119285 -3 0.414213562373095
1.08470869120796 -2.618718433538229 0.6187184335382289
2.618718433538228 -1.084708691207961 0.6187184335382289
1.011485386504597 -2.441941738241592 0.4419417382415922
2.441941738241592 -1.011485386504598 0.4419417382415922
1.381281566461771 -0.5721455582844194 0.6187184335382289
1.558058261758408 -0.6453688629877825 0.4419417382415922
0.572145558284419 -1.381281566461771 0.6187184335382289
0.645368862987782 -1.558058261758408 0.4419417382415922
1.585786437626905 -0.6568542494923804 0.9999999999999999
0.6568542494923799 -1.585786437626905 0.9999999999999999
2.414213562373094 -1 0.9999999999999999
0.9999999999999994 -2.414213562373095 0.9999999999999999
1 -0.4142135623730952 -0.414213562373095
0.4142135623730949 -1 -0.414213562373095
1 -0.4142135623730952 0.414213562373095
0.4142135623730949 -1 0.414213562373095
1.823223304703363 0.7552038200428267 -0.1767766952966369
2.176776695296637 0.9016504294495529 -0.1767766952966369
0.755203820042827 1.823223304703363 -0.1767766952966369
0.9016504294495533 2.176776695296637 -0.1767766952966369
1.823223304703363 0.7552038200428267 0.1767766952966369
2.176776695296637 0.9016504294495529 0.1767766952966369
0.755203820042827 1.823223304703363 0.1767766952966369
0.9016504294495533 2.176776695296637 0.1767766952966369
1.652469820938313 0.6844754112448889 -0.8402595195773874
2.347530179061687 0.9723788382474905 -0.8402595195773874
0.6844754112448891 1.652469820938313 -0.8402595195773874
0.9723788382474909 2.347530179061687 -0.8402595195773874
1.770631573798668 0.7334196118334261 -0.5168939945610538
2.229368426201332 0.9234346376589537 -0.5168939945610538
0.7334196118334262 1.770631573798668 -0.5168939945610538
0.9234346376589542 2.229368426201332 -0.5168939945610538
2.840259519577387 1.176474013668245 -0.3475301790616868
2.840259519577387 1.176474013668245 0.3475301790616868
1.176474013668245 2.840259519577387 -0.3475301790616868
1.176474013668245 2.840259519577387 0.3475301790616868
2.516893994561054 1.042531627602583 -0.2293684262013315
2.516893994561054 1.042531627602583 0.2293684262013315
1.042531627602584 2.516893994561054 -0.2293684262013315
1.042531627602584 2.516893994561054 0.2293684262013315
1.652469820938313 0.6844754112448889 0.8402595195773874
1.770631573798668 0.7334196118334261 0.5168939945610538
0.6844754112448891 1.652469820938313 0.8402595195773874
0.7334196118334262 1.770631573798668 0.5168939945610538
2.347530179061687 0.9723788382474907 0.8402595195773874
2.229368426201332 0.9234346376589537 0.5168939945610538
0.9723788382474911 2.347530179061687 0.8402595195773874
0.9234346376589542 2.229368426201332 0.5168939945610538
1.159740480422613 0.4803802358241348 -0.3475301790616868
1.483106005438946 0.6143226218897967 -0.2293684262013315
0.480380235824135 1.159740480422613 -0.3475301790616868
0.6143226218897968 1.483106005438946 -0.2293684262013315
1.159740480422613 0.4803802358241348 0.3475301790616868
1.483106005438946 0.6143226218897967 0.2293684262013315
0.480380235824135 1.159740480422613 0.3475301790616868
0.6143226218897968 1.483106005438946 0.2293684262013315
-0.7552038200428268 1.823223304703363 -0.1767766952966369
-0.9016504294495531 2.176776695296637 -0.1767766952966369
-1.823223304703363 0.755203820042827 -0.1767766952966369
-2.176776695296637 0.9016504294495533 -0.1767766952966369
-0.7552038200428268 1.823223304703363 0.1767766952966369
-0.9016504294495531 2.176776695296637 0.1767766952966369
-1.823223304703363 0.755203820042827 0.1767766952966369
-2.176776695296637 0.9016504294495533 0.1767766952966369
-0.6844754112448891 1.652469820938313 -0.8402595195773874
-0.9723788382474907 2.347530179061687 -0.8402595195773874
-1.652469820938313 0.6844754112448892 -0.8402595195773874
-2.347530179061687 0.9723788382474909 -0.8402595195773874
-0.7334196118334262 1.770631573798668 -0.5168939945610538
-0.9234346376589539 2.229368426201332 -0.5168939945610538
-1.770631573798668 0.7334196118334263 -0.5168939945610538
-2.229368426201332 0.9234346376589542 -0.5168939945610538
-1.176474013668245 2.840259519577387 -0.3475301790616868
-1.176474013668245 2.840259519577387 0.3475301790616868
-2.840259519577387 1.176474013668245 -0.3475301790616868
-2.840259519577387 1.176474013668245 0.3475301790616868
-1.042531627602583 2.516893994561054 -0.2293684262013315
-1.042531627602583 2.516893994561054 0.2293684262013315
-2.516893994561054 1.042531627602584 -0.2293684262013315
-2.516893994561054 1.042531627602584 0.2293684262013315
-0.6844754112448891 1.652469820938313 0.8402595195773874
-0.7334196118334262 1.770631573798668 0.5168939945610538
-1.652469820938313 0.6844754112448892 0.8402595195773874
-1.770631573798668 0.7334196118334263 0.5168939945610538
-0.9723788382474908 2.347530179061687 0.8402595195773874
-0.9234346376589539 2.229368426201332 0.5168939945610538
-2.347530179061687 0.9723788382474911 0.8402595195773874
-2.229368426201332 0.9234346376589542 0.5168939945610538
-0.4803802358241349 1.159740480422613 -0.3475301790616868
-0.6143226218897968 1.483106005438946 -0.2293684262013315
-1.159740480422613 0.480380235824135 -0.3475301790616868
-1.483106005438946 0.6143226218897969 -0.2293684262013315
-0.4803802358241349 1.159740480422613 0.3475301790616868
-0.6143226218897968 1.483106005438946 0.2293684262013315
-1.159740480422613 0.480380235824135 0.3475301790616868
-1.483106005438946 0.6143226218897969 0.2293684262013315
-1.823223304703363 -0.7552038200428267 -0.1767766952966369
-2.176776695296637 -0.9016504294495529 -0.1767766952966369
-0.7552038200428274 -1.823223304703363 -0.1767766952966369
-0.9016504294495536 -2.176776695296637 -0.1767766952966369
-1.823223304703363 -0.7552038200428267 0.1767766952966369
-2.176776695296637 -0.9016504294495529 0.1767766952966369
-0.7552038200428274 -1.823223304703363 0.1767766952966369
-0.9016504294495536 -2.176776695296637 0.1767766952966369
-1.652469820938313 -0.6844754112448889 -0.8402595195773874
-2.347530179061687 -0.9723788382474905 -0.8402595195773874
-0.6844754112448893 -1.652469820938313 -0.8402595195773874
-0.9723788382474914 -2.347530179061686 -0.8402595195773874
-1.770631573798669 -0.733419611833426 -0.5168939945610538
-2.229368426201332 -0.9234346376589537 -0.5168939945610538
-0.7334196118334265 -1.770631573798668 -0.5168939945610538
-0.9234346376589544 -2.229368426201332 -0.5168939945610538
-2.840259519577387 -1.176474013668245 -0.3475301790616868
-2.840259519577387 -1.176474013668245 0.3475301790616868
-1.176474013668246 -2.840259519577387 -0.3475301790616868
-1.176474013668246 -2.840259519577387 0.3475301790616868
-2.516893994561054 -1.042531627602583 -0.2293684262013315
-2.516893994561054 -1.042531627602583 0.2293684262013315
-1.042531627602584 -2.516893994561054 -0.2293684262013315
-1.042531627602584 -2.516893994561054 0.2293684262013315
-1.652469820938313 -0.6844754112448889 0.8402595195773874
-1.770631573798669 -0.733419611833426 0.5168939945610538
-0.6844754112448893 -1.652469820938313 0.8402595195773874
-0.7334196118334265 -1.770631573798668 0.5168939945610538
-2.347530179061688 -0.9723788382474908 0.8402595195773874
-2.229368426201332 -0.9234346376589537 0.5168939945610538
-0.9723788382474915 -2.347530179061687 0.8402595195773874
-0.9234346376589544 -2.229368426201332 0.5168939945610538
-1.159740480422613 -0.4803802358241349 -0.3475301790616868
-1.483106005438946 -0.6143226218897967 -0.2293684262013315
-0.4803802358241352 -1.159740480422613 -0.3475301790616868
-0.614322621889797 -1.483106005438946 -0.2293684262013315
-1.159740480422613 -0.4803802358241349 0.3475301790616868
-1.483106005438946 -0.6143226218897967 0.2293684262013315
-0.4803802358241352 -1.159740480422613 0.3475301790616868
-0.614322621889797 -1.483106005438946 0.2293684262013315
0.7552038200428265 -1.823223304703363 -0.1767766952966369
0.9016504294495528 -2.176776695296637 -0.1767766952966369
1.823223304703363 -0.7552038200428274 -0.1767766952966369
2.176776695296637 -0.9016504294495536 -0.1767766952966369
0.7552038200428265 -1.823223304703363 0.1767766952966369
0.9016504294495528 -2.176776695296637 0.1767766952966369
1.823223304703363 -0.7552038200428274 0.1767766952966369
2.176776695296637 -0.9016504294495536 0.1767766952966369
0.6844754112448889 -1.652469820938313 -0.8402595195773874
0.9723788382474904 -2.347530179061687 -0.8402595195773874
1.652469820938313 -0.6844754112448893 -0.8402595195773874
2.347530179061686 -0.9723788382474914 -0.8402595195773874
0.733419611833426 -1.770631573798669 -0.5168939945610538
0.9234346376589536 -2.229368426201332 -0.5168939945610538
1.770631573798668 -0.7334196118334265 -0.5168939945610538
2.229368426201332 -0.9234346376589544 -0.5168939945610538
1.176474013668244 -2.840259519577387 -0.3475301790616868
1.176474013668244 -2.840259519577387 0.3475301790616868
2.840259519577387 -1.176474013668246 -0.3475301790616868
2.840259519577387 -1.176474013668246 0.3475301790616868
1.042531627602583 -2.516893994561054 -0.2293684262013315
1.042531627602583 -2.516893994561054 0.2293684262013315
2.516893994561054 -1.042531627602584 -0.2293684262013315
2.516893994561054 -1.042531627602584 0.2293684262013315
0.6844754112448889 -1.652469820938313 0.8402595195773874
0.733419611833426 -1.770631573798669 0.5168939945610538
1.652469820938313 -0.6844754112448893 0.8402595195773874
1.770631573798668 -0.7334196118334265 0.5168939945610538
0.9723788382474907 -2.347530179061688 0.8402595195773874
0.9234346376589536 -2.229368426201332 0.5168939945610538
2.347530179061687 -0.9723788382474915 0.8402595195773874
2.229368426201332 -0.9234346376589544 0.5168939945610538
0.4803802358241348 -1.159740480422613 -0.3475301790616868
0.6143226218897967 -1.483106005438946 -0.2293684262013315
1.159740480422613 -0.4803802358241352 -0.3475301790616868
1.483106005438946 -0.614322621889797 -0.2293684262013315
0.4803802358241348 -1.159740480422613 0.3475301790616868
0.6143226218897967 -1.483106005438946 0.2293684262013315
1.159740480422613 -0.4803802358241352 0.3475301790616868
1.483106005438946 -0.614322621889797 0.2293684262013315
